<?xml version="1.0" standalone="no"?>
<!DOCTYPE svg PUBLIC "-//W3C//DTD SVG 1.1//EN" "http://www.w3.org/Graphics/SVG/1.1/DTD/svg11.dtd" >
<svg xmlns="http://www.w3.org/2000/svg">
<metadata>Generated by IcoMoon</metadata>
<defs>
<font id="KUKA-Brand_Iconfont" horiz-adv-x="1024">
<font-face units-per-em="1024" ascent="960" descent="-64" />
<missing-glyph horiz-adv-x="1024" />
<glyph unicode="&#x20;" horiz-adv-x="512" d="" />
<glyph unicode="&#xe900;" glyph-name="mail" d="M810.095 634.806v-385.174h-581.736v385.174h581.736zM765.29 293.713v272.44l-245.702-196.562-245.702 197.284v-272.44l491.404-0.723zM314.354 590.001l204.511-163.32 204.511 164.042-409.022-0.723z" />
<glyph unicode="&#xe901;" glyph-name="external-link" d="M346.006 579.957l76.89-0.434v-36.133h-40.902v-227.275h244.835v43.359h36.133v-79.492h-316.956zM624.517 435.932l11.852 108.832-169.824-170.113-24.353 24.353 169.824 169.824-108.832-11.562-4.553 34.182 179.579 20.307-19.439-180.013z" />
<glyph unicode="&#xe902;" glyph-name="fax" d="M366.169 443.23v182.325h292.386v-182.542l2.746-1.518c11.021-5.019 20.43-11.652 28.39-19.718 8.138-8.072 14.914-17.481 19.978-27.877 4.935-9.96 7.954-20.896 8.638-32.461q0.011-6.156 0.444-16.418t0-17.488c-0.085-5.932-1.298-11.558-3.434-16.704-1.981-4.831-5.105-9.162-9.029-12.602-5.772-5.278-13.44-8.491-21.859-8.491-0.154 0-0.308 0.001-0.461 0.003q-1.639 0-5.469 0.433-21.68 2.746-39.385 5.709c-10.156 1.493-18.764 3.259-27.203 5.447-3.489 0.781-8.030 3.324-11.608 6.842-3.51 3.672-6.051 8.306-7.188 13.466l-4.298 25.843c-9.42 1.879-20.725 3.32-32.232 4.012q-23.050 1.697-43.574 1.914t-42.42-1.879c-11.606-0.605-22.406-1.894-32.973-3.85l-5.689-27.947c-1.555-4.816-4.224-8.908-7.713-12.123-3.497-3.219-7.825-5.549-12.625-6.631-6.829-2.025-15.079-3.864-23.505-5.169q-18.377-3.104-41.43-6.067c-1.397-0.215-3.068-0.37-4.763-0.431-0.086-0.002-0.093-0.002-0.101-0.002-4.407 0-8.622 0.822-12.501 2.321-3.804 1.418-7.269 3.603-10.183 6.364-4.059 3.55-7.314 7.939-9.505 12.904-2.284 5-3.562 10.573-3.562 16.444 0 0.043 0 0.087 0 0.13v13.29c-0.032 1.285-0.050 2.799-0.050 4.317 0 10.443 0.859 20.685 2.511 30.659 2.095 9.411 5.975 18.701 11.258 27.011 4.945 8.461 11.14 15.991 18.347 22.41 7.328 6.574 15.644 12.068 24.699 16.232zM590.191 422.779c-23.035 3.588-49.603 5.638-76.65 5.638-0.415 0-0.83 0-1.245-0.001h0.065c-27.237-0.030-53.952-2.157-80.024-6.228-18.301-2.175-37.617-7.257-55.762-14.623-8.57-3.954-16.883-10.875-22.928-19.502-6.266-8.173-10.264-18.098-11.098-28.909q-0.445-8.207-0.445-25.984 0-8.021 0-10.189l55.355 12.068 11.418 43.865q29.629 5.926 53.043 8.455c14.57 1.613 31.465 2.534 48.575 2.534 0.707 0 1.414-0.002 2.12-0.005h0.469c1.373 0.015 2.996 0.023 4.62 0.023 16.392 0 32.586-0.848 48.54-2.503q18.455-2.145 54.877-9.805l6.359-42.781 55.066-9.322v33.892c-0.799 11.023-4.861 20.966-11.214 29.018-6.161 8.576-14.39 15.462-23.963 19.963-16.969 6.984-36.227 11.999-56.311 14.301zM402.157 454.143c15.104 3.415 33.465 6.228 52.17 7.838q32.742 3.001 57.746 3.001t56.367-2.746c20.12-1.644 38.453-4.51 56.32-8.6l-2.627 136.004h-219.976zM586.144 540.861h-143.374v15.898h143.374zM552.685 493.021h-109.916v16.26h109.916z" />
<glyph unicode="&#xe903;" glyph-name="phone" d="M579.135 214.944c-0.069 0-0.151 0-0.232 0-12.328 0-24.205 1.929-35.346 5.502-11.108 3.621-21.479 8.824-30.861 15.349-21.438 16.455-40.438 35.157-56.914 55.95-18.797 22.565-36.095 46.881-51.453 72.493-15.606 25.7-29.252 52.655-40.744 80.719-11.408 26.316-19.13 52.438-23.288 79.732q-0.866 8.077-0.866 14.003c0.028 19.478 4.808 37.834 13.243 53.978 7.735 15.761 19.478 29.264 33.889 39.164q6.489 4.272 16.967 10.703t18.139 10.912c6.515 3.985 14.398 6.349 22.833 6.359 0.076 0 0.162 0.001 0.248 0.001 4.543 0 8.906-0.768 12.967-2.18 5.108-1.665 9.742-4.411 13.627-7.963 3.997-3.717 7.243-8.236 9.481-13.301q9.641-22.733 17.663-43.618c3.43-8.068 7.027-18.349 10.046-28.875 1.467-4.863 2.022-8.098 2.022-11.463 0-0.046 0-0.092 0-0.138-0.061-4.141-0.986-8.057-2.603-11.591-1.724-3.798-4.159-7.181-7.137-9.995l-30.511-23.717c11.031-30.545 22.869-56.311 36.547-80.913q7.896-12.020 21.049-29.508t27.75-33.748l43.359 13.73c0.605 0.044 1.311 0.069 2.023 0.069s1.418-0.025 2.118-0.074c-0.060 0.005-0.019 0.006 0.022 0.006 4.221 0 8.23-0.905 11.845-2.531 3.674-1.717 6.941-4.152 9.622-7.126 17.934-18.403 34.859-38.009 50.558-58.599 6.402-8.041 9.591-16.401 9.591-25.506 0-0.064 0-0.129 0-0.193-0.029-8.808-2.869-16.957-7.669-23.595-3.525-5.022-8.029-9.273-13.238-12.489q-21.873-13.047-32.568-18.972c-6.78-3.701-14.653-6.906-22.904-9.204-8.637-2.227-17.634-3.396-26.904-3.396-0.833 0-1.663 0.009-2.491 0.028zM406.998 602.070c-9.643-6.85-17.307-15.88-22.368-26.399-5.696-10.909-8.951-23.341-8.995-36.53q0-2.977 0.434-8.035c3.919-25.358 10.753-48.161 20.269-69.505 11.383-28.406 24.283-53.916 39.078-78.142l-1.318 2.322v-0.434c15.745-26.725 32.12-49.775 50.223-71.324 14.123-17.995 30.759-34.31 49.259-48.29 12.78-9.218 27.908-14.449 44.258-14.449 0.456 0 0.911 0.004 1.365 0.012 0.092-0.002 0.281-0.003 0.47-0.003 6.185 0 12.209 0.685 18.002 1.984 4.907 1.033 9.739 2.78 14.224 5.105q6.476 3.464 15.798 8.739t16.693 9.973c1.382 0.683 2.524 1.664 3.378 2.863 0.526 0.558 0.839 1.28 0.839 2.074 0 0.354-0.062 0.694-0.176 1.009l-1.077 2.725c-15.031 19.661-29.94 37.045-45.746 53.562l-56.726-18.441-7.588 8.238c-10.988 11.227-21.356 23.198-30.968 35.777q-19.401 24.998-31.686 44.293l-20.090 40.685q-11.852 26.449-17.055 41.625l-5.42 15.754-4.119 11.924 45.31 36.133c-9.147 28.005-17.96 50.441-27.838 72.292q-1.357-3.64-11.835-9.493l-10.478-5.853z" />
<glyph unicode="&#xe904;" glyph-name="filters" d="M824.186 587.906v-47.623h-373.756c-3.694-15.246-10.49-28.548-19.72-39.772-9.252-11.332-20.867-20.636-34.096-27.167-13.405-6.613-28.483-10.326-44.428-10.326s-31.024 3.713-44.418 10.321c-13.23 6.508-24.828 15.817-34.023 27.154-9.198 11.253-15.968 24.552-19.52 39.111l-88.015 0.678v47.623h87.947c3.661 15.26 10.408 28.584 19.582 39.855 9.2 11.344 20.797 20.654 34.022 27.16 13.4 6.605 28.479 10.315 44.423 10.315s31.023-3.71 44.419-10.313c13.237-6.54 24.851-15.844 34.097-27.159 9.24-11.237 16.036-24.539 19.59-39.111zM682.329 365.184c13.819-6.77 25.417-16.080 34.612-27.417 9.194-11.255 15.963-24.553 19.519-39.11l87.798-0.68v-47.623h-87.73c-3.697-15.237-10.466-28.535-19.653-39.779-9.202-11.348-20.799-20.657-34.024-27.163-13.399-6.61-28.478-10.323-44.423-10.323s-31.024 3.713-44.418 10.321c-13.241 6.534-24.857 15.839-34.097 27.158-9.242 11.237-16.039 24.539-19.591 39.112l-374.112 0.674v47.623h374.045c3.691 15.247 10.487 28.549 19.72 39.772 9.252 11.332 20.867 20.637 34.097 27.168 13.405 6.613 28.483 10.326 44.428 10.326s31.024-3.713 44.418-10.321zM380.333 515.424c8.537 5.055 15.469 11.986 20.378 20.259 4.928 8.328 7.755 18.040 7.755 28.412s-2.827 20.084-7.752 28.407c-4.871 8.422-11.81 15.477-20.123 20.481-8.32 4.934-18.032 7.765-28.406 7.765s-20.085-2.831-28.406-7.763c-8.308-4.986-15.247-12.017-20.118-20.397-4.93-8.337-7.757-18.049-7.757-28.421s2.827-20.084 7.752-28.407c4.913-8.278 11.844-15.209 20.117-20.119 8.328-4.928 18.040-7.755 28.412-7.755s20.084 2.827 28.407 7.752zM666.648 225.278c8.535 5.057 15.466 11.988 20.378 20.259 4.936 8.327 7.767 18.039 7.767 28.412s-2.831 20.085-7.763 28.406c-4.913 8.279-11.845 15.21-20.117 20.12-8.327 4.935-18.039 7.767-28.412 7.767s-20.085-2.831-28.406-7.763c-8.281-4.829-15.231-11.664-20.194-19.838-4.934-8.316-7.765-18.029-7.765-28.402s2.831-20.085 7.763-28.406c4.916-8.277 11.846-15.208 20.117-20.12 8.329-4.929 18.040-7.755 28.412-7.755s20.084 2.827 28.407 7.752z" />
<glyph unicode="&#xe905;" glyph-name="location" d="M341.454 623.316c17.566 30.13 41.883 54.563 70.983 71.762 29.292 17.204 63.42 27.068 99.852 27.068s70.561-9.865 99.86-27.069c29.023-17.231 53.287-41.657 70.323-70.821 17.11-29.038 26.92-62.857 26.92-98.967 0-20.225-3.077-39.731-8.789-58.076-5.905-19.067-14.209-36.866-24.592-53.215l-163.578-260.696-164.765 261.528c-9.853 15.466-18.159 33.289-24.007 52.193-5.722 18.478-8.777 37.916-8.777 58.069 0 36.22 9.869 70.135 27.065 99.202zM385.608 438.533l126.609-201.187 126.681 201.259c15.971 24.187 25.604 53.788 25.943 85.618 0.003 0.421 0.005 0.815 0.005 1.209 0 27.852-7.627 53.924-20.906 76.239-13.213 22.438-31.947 41.195-54.336 54.423-22.672 13.309-49.084 20.939-77.279 20.939s-54.607-7.631-77.285-20.939c-22.537-13.227-41.38-32.070-54.607-54.608-13.29-22.341-20.917-48.405-20.917-76.251 0-0.401 0.002-0.802 0.005-1.202 0.369-31.802 10.055-61.331 26.453-86.015zM483.455 476.834c-17.402 10.182-28.906 28.781-28.906 50.067 0 0.005 0 0.009 0 0.014-0.001 0.127-0.002 0.277-0.002 0.428 0 10.498 2.873 20.324 7.877 28.736 10.039 17.143 28.638 28.647 49.924 28.647 0.005 0 0.009 0 0.014 0 0.121 0.001 0.265 0.001 0.409 0.001 10.504 0 20.337-2.873 28.756-7.877 8.477-4.993 15.561-12.077 20.55-20.544 5.017-8.562 7.893-18.533 7.893-29.176s-2.876-20.614-7.893-29.179c-4.947-8.54-12.040-15.68-20.541-20.683-8.56-5.015-18.531-7.891-29.174-7.891s-20.614 2.876-29.179 7.893z" />
<glyph unicode="&#xe906;" glyph-name="automobil" d="M956.071 370.17h-68.58c-1.551-18.056-7.622-34.434-17.064-48.338-9.349-13.919-21.897-25.473-36.594-33.625-14.886-8.219-31.993-12.895-50.193-12.895-19.539 0-37.819 5.389-53.435 14.761-15.431 9.23-28.244 22.39-37.056 38.098l-350.321 0.519c-9.082-16.224-21.894-29.384-37.326-38.619-15.638-9.367-33.942-14.754-53.504-14.754-17.735 0-34.437 4.428-49.059 12.238-28.834 15.604-49.561 44.283-54.227 78.091l-80.349 0.55v204.294h135.787l147.999 123.501h296.288l77.468-123.501h230.165zM911.411 525.83h-798.315v-115.046h39.385c4.479 14.649 11.669 27.304 21.055 37.981 9.494 10.712 21.159 19.462 34.305 25.561 13.332 6.146 28.181 9.574 43.83 9.574 19.272 0 37.329-5.199 52.846-14.271 15.35-9.020 28.2-21.847 37.249-37.183 9.123-15.219 14.361-32.997 14.361-51.999 0-0.285-0.001-0.569-0.004-0.853v-6.316h323.171v6.359c0 0.083 0 0.182 0 0.28 0 19.248 5.375 37.241 14.706 52.559 9.060 15.38 21.911 28.207 37.267 37.226 15.457 9.017 33.442 14.183 52.633 14.183 15.12 0 29.491-3.207 42.47-8.978 12.724-5.819 24.102-14.074 33.531-24.172 9.424-10.124 16.813-22.168 21.517-35.481l29.632-0.714zM281.835 328.256c9.023 5.333 16.347 12.656 21.526 21.4 5.204 8.8 8.189 19.060 8.189 30.017s-2.985 21.217-8.186 30.012c-5.185 8.747-12.508 16.070-21.25 21.252-8.834 5.209-19.131 8.196-30.125 8.196s-21.291-2.987-30.123-8.193c-8.744-5.184-16.067-12.507-21.249-21.249-5.204-8.8-8.189-19.060-8.189-30.017s2.985-21.217 8.186-30.012c5.182-8.749 12.506-16.073 21.25-21.252 8.834-5.209 19.131-8.195 30.125-8.195s21.291 2.987 30.123 8.193zM362.338 644.2l-88.308-73.711h88.308zM623.65 649.259h-216.796v-78.769h265.936zM813.491 328.256c9.023 5.333 16.347 12.656 21.526 21.4 5.204 8.8 8.189 19.060 8.189 30.017s-2.985 21.217-8.186 30.012c-5.185 8.747-12.508 16.070-21.25 21.252-8.8 5.204-19.060 8.189-30.017 8.189s-21.217-2.985-30.012-8.186c-8.747-5.185-16.070-12.508-21.252-21.25-5.204-8.8-8.189-19.060-8.189-30.017s2.985-21.217 8.186-30.012c5.182-8.749 12.506-16.073 21.25-21.252 8.8-5.204 19.060-8.189 30.017-8.189s21.217 2.985 30.012 8.186z" />
<glyph unicode="&#xe907;" glyph-name="file-type-pdf" d="M357.713 472.932v-144.531h23.125v53.476h21.68c13.008-0.723 25.293 2.891 35.41 11.562 8.672 9.394 13.008 21.68 12.285 34.687 0.723 12.285-2.891 24.57-11.562 33.965-10.117 7.949-22.402 12.285-35.41 11.562l-45.527-0.723zM398.905 401.389h-18.066v51.308h18.066c7.227 0.723 14.453-1.445 20.234-5.781 5.059-5.059 7.227-12.285 6.504-19.512 0.723-7.227-1.445-14.453-6.504-20.234-5.059-4.336-12.285-6.504-20.234-5.781v0zM466.112 472.932v-144.531h43.359c16.621-0.723 33.242 5.059 45.527 16.621 11.562 11.562 17.344 29.629 17.344 55.644s-5.781 44.082-17.344 55.644c-12.285 11.562-28.906 17.344-45.527 16.621h-43.359zM505.857 348.635h-15.898v104.062h15.898c7.949 0 15.898-1.445 22.402-4.336s11.562-8.672 14.453-15.898c3.613-10.117 5.781-20.957 5.059-31.797 0.723-10.84-1.445-21.68-5.059-31.797-2.891-6.504-7.949-12.285-14.453-15.898-7.227-3.613-14.453-5.059-22.402-4.336zM593.299 472.932v-144.531h23.848v59.98h42.637v20.234h-43.359v44.082h63.594v20.234h-86.718zM622.927 767.052h-388.065v-650.388h553.553v484.9l-165.488 165.488zM622.927 712.13l112.011-112.011h-112.011v112.011zM744.333 161.468h-463.944v560.779h304.96v-159.706h159.706c0 0 0-401.073-0.723-401.073z" />
<glyph unicode="&#xe908;" glyph-name="file-type-xls" d="M351.21 328.401h24.57l34.687 54.922 34.687-54.922h27.461v2.168l-45.527 72.265 44.082 67.207v2.168h-25.293l-32.519-51.308-32.519 51.308h-25.293v-2.168l41.914-67.207-46.25-71.543v-2.891zM497.186 328.401h83.105v20.234h-59.98v123.574h-23.848l0.723-143.808zM589.685 337.795c5.781-3.613 11.562-6.504 18.066-8.672 7.949-2.168 15.898-3.613 24.57-3.613 13.008-0.723 26.016 3.613 36.133 11.562 8.672 7.949 13.73 20.234 13.008 31.797 0 7.949-2.168 16.621-7.227 23.125-5.781 6.504-13.008 11.562-21.68 15.176l-18.789 7.227c-5.059 1.445-10.117 4.336-13.73 8.672-2.891 3.613-4.336 8.672-4.336 13.008-0.723 5.059 1.445 10.117 5.781 13.008s10.117 5.059 15.898 4.336c5.781 0 11.562-0.723 16.621-2.168s10.84-3.613 15.176-5.781l7.227 19.512c-5.781 2.891-11.562 5.059-17.344 6.504-7.227 1.445-14.453 2.168-21.68 2.168-11.562 0.723-23.125-3.613-32.519-10.84-8.672-7.949-13.008-18.789-13.008-30.351-0.723-9.394 2.891-18.066 8.672-25.293 6.504-7.227 15.176-13.008 24.57-15.898l13.73-5.781c5.059-1.445 10.117-4.336 13.73-7.949 2.891-3.613 4.336-7.949 4.336-13.008 0-5.781-2.168-10.84-6.504-14.453-5.059-3.613-11.562-5.781-18.066-5.059-12.285 0-24.57 3.613-35.41 10.117l-7.227-17.344zM623.65 767.052h-388.065v-650.388h553.553v484.9l-165.488 165.488zM622.927 712.13l112.011-112.011h-112.011v112.011zM745.056 161.468h-464.666v560.779h304.96v-159.706h159.706c0 0 0-401.073 0-401.073z" />
<glyph unicode="&#xe909;" glyph-name="file-type-dwg" d="M308.573 329.124h43.359c16.621-0.723 32.519 5.059 44.805 16.621 11.562 10.84 17.344 29.629 17.344 55.644s-5.781 44.082-17.344 55.644c-12.285 11.562-28.183 17.344-44.805 16.621h-43.359v-144.531zM332.421 348.635v104.062h15.176c7.949 0 15.176-1.445 22.402-4.336 6.504-2.891 11.562-8.672 14.453-15.898 3.613-10.117 5.781-20.957 5.059-31.797 0.723-10.84-1.445-21.68-5.059-31.797-2.891-6.504-7.949-12.285-14.453-15.898-7.227-2.891-15.176-4.336-22.402-4.336h-15.176zM453.826 328.401h26.738l29.629 107.675 30.351-107.675h27.461l39.023 142.363v2.168h-23.848l-28.906-112.734-31.797 112.734h-21.68l-32.519-112.734-29.629 113.457h-23.848v-2.168l39.023-143.085zM622.205 344.299c10.84-12.285 26.738-18.789 43.359-17.344 5.781 0 11.562 0.723 17.344 2.891 5.059 1.445 10.117 4.336 14.453 8.672l1.445-11.562h18.066v75.879h-45.527v-18.066h22.402v-30.351c-7.227-5.059-16.621-7.227-25.293-7.227-10.117-0.723-20.234 3.613-26.738 12.285-5.781 7.949-9.394 22.402-9.394 41.914-0.723 10.84 1.445 22.402 4.336 32.519 2.168 6.504 6.504 13.008 12.285 16.621 6.504 3.613 13.73 5.059 20.957 4.336 5.781 0 11.562-0.723 17.344-2.168 5.059-1.445 10.84-3.613 15.176-6.504l7.227 18.789c-5.781 3.613-11.562 5.781-17.344 7.227-7.227 2.168-15.176 2.891-23.125 2.168-16.621 0.723-32.519-5.781-44.805-17.344-11.562-11.562-17.344-30.351-17.344-56.367s5.059-44.082 15.176-56.367v0zM623.65 767.052h-388.065v-650.388h553.553v484.9l-165.488 165.488zM622.927 712.13l112.011-112.011h-112.011v112.011zM745.056 161.468h-464.666v560.779h304.96v-159.706h159.706c0 0 0-401.073 0-401.073z" />
<glyph unicode="&#xe90a;" glyph-name="file-type-zip" d="M381.561 330.569h99.726v20.234h-70.097l68.652 107.675v16.621h-96.836v-20.957h65.761l-67.207-108.398v-15.176zM503.689 330.569h23.848v143.808h-23.848v-143.808zM562.224 330.569h23.848v53.476h21.68c13.008-0.723 25.293 2.891 35.41 10.84 8.672 9.394 13.008 21.68 12.285 33.965 0.723 12.285-3.613 25.293-12.285 33.965-10.117 7.949-22.402 12.285-34.687 11.562h-45.527l-0.723-143.808zM586.072 403.557v50.586h17.344c7.227 0.723 14.453-1.445 20.234-5.781 5.059-5.059 7.227-12.285 6.504-19.512 0.723-7.227-1.445-14.453-6.504-19.512-5.781-4.336-13.008-6.504-20.234-5.781h-17.344zM632.322 767.052h-388.065v-650.388h553.553v484.9l-165.488 165.488zM631.599 712.13l112.011-112.011h-112.011v112.011zM753.728 161.468h-464.666v560.779h304.96v-159.706h159.706v-401.073z" />
<glyph unicode="&#xe90b;" glyph-name="oszilloskop-section-a+b" d="M823.825 398.571l-44.443-5.059-26.883 242.233c-6.75 40.926-41.872 71.76-84.196 71.76-0.099 0-0.199 0-0.298-0.001-0.224 0.003-0.507 0.004-0.789 0.004-12.321 0-24.020-2.663-34.552-7.444-10.809-4.865-20.424-11.865-28.324-20.464-7.931-8.657-14.065-18.987-17.811-30.401l-62.822-216.304v-41.48h-12.285l-16.115-55.283h28.4v-88.381h-44.66v32.953c-16.99-53.424-66.159-91.451-124.21-91.451-65.223 0-119.234 48.004-128.63 110.608l-0.088 1.8-26.016 234.212 44.732 4.986 25.871-233.562c2.275-14.056 7.682-26.547 15.486-37.165 7.664-10.587 17.743-19.302 29.429-25.342 11.699-5.912 24.955-9.246 38.991-9.246 12.906 0 25.154 2.819 36.16 7.876 21.619 9.974 38.344 28.775 45.548 51.785l42.51 143.977v40.469h11.852l16.332 55.283h-28.183v88.525h44.66v-32.014l20.74 70.314c11.665 35.476 37.086 63.654 69.791 78.723 16.29 7.502 34.405 11.682 53.496 11.682 0.202 0 0.404 0 0.606-0.001 0.018 0 0.076 0 0.134 0 16.292 0 31.884-2.995 46.256-8.465 14.378-5.416 27.522-13.423 38.84-23.447 11.336-9.824 20.964-21.502 28.432-34.573 7.395-13.064 12.475-27.562 14.716-42.98l0.080-1.535zM361.327 684.452v13.297q0 20.74-9.756 28.906c-7.486 5.076-16.72 8.103-26.661 8.103-1.35 0-2.687-0.056-4.008-0.165 0.118 0.012 0.052 0.012-0.013 0.012-8.383 0-16.476-1.241-24.105-3.55-9.694-3.017-18.195-6.304-26.42-10.089l-7.535 29.971c9.037 5.051 19.502 9.13 30.549 11.692 11.665 2.862 24.123 4.416 36.943 4.423q35.559 0 53.481-15.465t17.922-47.84v-93.945c0.11-8.050 0.789-15.847 1.999-23.468 0.956-7.197 2.372-14.274 4.201-21.183l-37.13-2.394c-1.208 2.907-2.396 6.496-3.341 10.181-1.032 3.822-1.818 7.767-2.325 11.798-6.74-6.655-14.819-12.349-23.858-16.237-9.427-3.979-19.848-6.188-30.785-6.188-0.469 0-0.937 0.004-1.403 0.012-0.778-0.048-1.77-0.074-2.769-0.074-14.063 0-26.89 5.292-36.597 13.994-8.976 9.394-14.533 22.218-14.533 36.341 0 1.309 0.048 2.608 0.142 3.893-0.036 0.437-0.051 1.151-0.051 1.869 0 10.595 3.257 20.429 8.825 28.556 5.93 7.928 13.842 14.31 23.004 18.397 10.716 4.798 22.815 8.671 35.41 11.168zM361.327 655.546l-28.183-5.709c-8.567-1.629-16.123-3.929-23.314-6.932-4.339-1.819-8.57-5.167-11.679-9.392-2.653-4.115-4.197-9.043-4.197-14.331 0-0.376 0.008-0.75 0.023-1.123-0.079-0.656-0.123-1.478-0.123-2.311 0-6.761 2.91-12.841 7.546-17.058 5.319-3.8 11.93-6.066 19.070-6.066 0.645 0 1.286 0.018 1.921 0.055 7.787 0.028 15.238 1.81 21.907 4.972 6.395 2.798 12.139 6.69 17.044 11.443zM523.924 678.382h-44.877v88.67h44.66zM479.047 192.542h44.66v-88.525h-44.66zM621.988 117.603h30.279l2.312 11.635c5.253-3.929 11.388-7.044 18.019-9.002 7.796-2.401 16.289-3.725 25.091-3.725 0.418 0 0.835 0.003 1.251 0.009q44.163-0.001 66.782 26.232t22.547 77.107q0 53.765-20.307 77.324t-58.318 23.414c-0.139 0.001-0.303 0.002-0.467 0.002-9.595 0-18.659-2.269-26.687-6.3-7.682-3.754-14.335-9.365-19.354-16.244l-0.104 105.503-41.119-1.301zM679.294 150.628c-6.322 1.699-11.846 4.431-16.676 8.040l0.128 108.813c4.386 5.963 9.913 10.821 16.29 14.323 6.463 3.845 13.935 6.066 21.92 6.128 0.819 0.050 1.755 0.078 2.698 0.078 9.257 0 17.878-2.724 25.104-7.414 6.707-5.377 11.626-13.075 13.506-21.898 2.563-11.141 4.006-23.646 4.006-36.488 0-1.564-0.021-3.123-0.064-4.677 0.030-0.814 0.045-2.043 0.045-3.275 0-12.548-1.49-24.748-4.301-36.433-2.007-8.353-7.139-16.328-14.163-22.080-7.226-5.124-16.13-8.156-25.742-8.156-0.911 0-1.815 0.027-2.712 0.081-7.075 0.027-14.009 1.107-20.55 3.090z" />
<glyph unicode="&#xe90c;" glyph-name="oszilloskop-section-b" d="M823.825 398.571l-44.443-5.059-26.883 242.233c-6.75 40.926-41.872 71.76-84.196 71.76-0.099 0-0.199 0-0.298-0.001-0.224 0.003-0.507 0.004-0.789 0.004-12.321 0-24.020-2.663-34.552-7.444-10.809-4.865-20.424-11.865-28.324-20.464-7.931-8.657-14.065-18.987-17.811-30.401l-62.822-216.304v-41.48h-12.285l-16.115-55.283h28.4v-88.381h-44.66v32.953c-16.99-53.424-66.159-91.451-124.21-91.451-65.223 0-119.234 48.004-128.63 110.608l-0.088 1.8-26.016 234.212 44.732 4.986 25.871-233.562c2.275-14.056 7.682-26.547 15.486-37.165 7.664-10.587 17.743-19.302 29.429-25.342 11.699-5.912 24.955-9.246 38.991-9.246 12.906 0 25.154 2.819 36.16 7.876 21.619 9.974 38.344 28.775 45.548 51.785l42.51 143.977v40.469h11.852l16.332 55.283h-28.183v88.525h44.66v-32.014l20.74 70.314c11.665 35.476 37.086 63.654 69.791 78.723 16.29 7.502 34.405 11.682 53.496 11.682 0.202 0 0.404 0 0.606-0.001 0.018 0 0.076 0 0.134 0 16.292 0 31.884-2.995 46.256-8.465 14.378-5.416 27.522-13.423 38.84-23.447 11.336-9.824 20.964-21.502 28.432-34.573 7.395-13.064 12.475-27.562 14.716-42.98l0.080-1.535zM523.707 678.743h-44.66v88.308h44.66zM479.047 192.542h44.66v-88.525h-44.66zM621.988 117.603h30.279l2.312 11.635c5.253-3.929 11.388-7.044 18.019-9.002 7.796-2.401 16.289-3.725 25.091-3.725 0.418 0 0.835 0.003 1.251 0.009q44.163-0.001 66.782 26.232t22.547 77.107q0 53.765-20.307 77.324t-58.318 23.414c-0.139 0.001-0.303 0.002-0.467 0.002-9.595 0-18.659-2.269-26.687-6.3-7.682-3.754-14.335-9.365-19.354-16.244l-0.104 105.503-41.119-1.301zM679.294 150.628c-6.322 1.699-11.846 4.431-16.676 8.040l0.128 108.813c4.386 5.963 9.913 10.821 16.29 14.323 6.463 3.845 13.935 6.066 21.92 6.128 0.819 0.050 1.755 0.078 2.698 0.078 9.257 0 17.878-2.724 25.104-7.414 6.707-5.377 11.626-13.075 13.506-21.898 2.563-11.141 4.006-23.646 4.006-36.488 0-1.564-0.021-3.123-0.064-4.677 0.030-0.814 0.045-2.043 0.045-3.275 0-12.548-1.49-24.748-4.301-36.433-2.007-8.353-7.139-16.328-14.163-22.080-7.226-5.124-16.13-8.156-25.742-8.156-0.911 0-1.815 0.027-2.712 0.081-7.075 0.027-14.009 1.107-20.55 3.090z" />
<glyph unicode="&#xe90d;" glyph-name="oszilloskop-section-a" d="M823.825 398.571l-44.443-5.059-26.883 242.233c-6.75 40.926-41.872 71.76-84.196 71.76-0.099 0-0.199 0-0.298-0.001-0.224 0.003-0.507 0.004-0.789 0.004-12.321 0-24.020-2.663-34.552-7.444-10.809-4.865-20.424-11.865-28.324-20.464-7.931-8.657-14.065-18.987-17.811-30.401l-62.822-216.304v-41.48h-12.285l-16.115-55.283h28.4v-88.381h-44.66v32.953c-16.99-53.424-66.159-91.451-124.21-91.451-65.223 0-119.234 48.004-128.63 110.608l-0.088 1.8-26.016 234.212 44.732 4.986 25.871-233.562c2.275-14.056 7.682-26.547 15.486-37.165 7.664-10.587 17.743-19.302 29.429-25.342 11.699-5.912 24.955-9.246 38.991-9.246 12.906 0 25.154 2.819 36.16 7.876 21.619 9.974 38.344 28.775 45.548 51.785l42.51 143.977v40.469h11.852l16.332 55.283h-28.183v88.525h44.66v-32.014l20.74 70.314c11.665 35.476 37.086 63.654 69.791 78.723 16.29 7.502 34.405 11.682 53.496 11.682 0.202 0 0.404 0 0.606-0.001 0.018 0 0.076 0 0.134 0 16.292 0 31.884-2.995 46.256-8.465 14.378-5.416 27.522-13.423 38.84-23.447 11.336-9.824 20.964-21.502 28.432-34.573 7.395-13.064 12.475-27.562 14.716-42.98l0.080-1.535zM361.327 684.452v13.297q0 20.74-9.756 28.906c-7.486 5.076-16.72 8.103-26.661 8.103-1.35 0-2.687-0.056-4.008-0.165 0.118 0.012 0.052 0.012-0.013 0.012-8.383 0-16.476-1.241-24.105-3.55-9.694-3.017-18.195-6.304-26.42-10.089l-7.535 29.971c9.037 5.051 19.502 9.13 30.549 11.692 11.665 2.862 24.123 4.416 36.943 4.423q35.559 0 53.481-15.465t17.922-47.84v-93.945c0.11-8.050 0.789-15.847 1.999-23.468 0.956-7.197 2.372-14.274 4.201-21.183l-37.13-2.394c-1.208 2.907-2.396 6.496-3.341 10.181-1.032 3.822-1.818 7.767-2.325 11.798-6.74-6.655-14.819-12.349-23.858-16.237-9.427-3.979-19.848-6.188-30.785-6.188-0.469 0-0.937 0.004-1.403 0.012-0.778-0.048-1.77-0.074-2.769-0.074-14.063 0-26.89 5.292-36.597 13.994-8.976 9.394-14.533 22.218-14.533 36.341 0 1.309 0.048 2.608 0.142 3.893-0.036 0.437-0.051 1.151-0.051 1.869 0 10.595 3.257 20.429 8.825 28.556 5.93 7.928 13.842 14.31 23.004 18.397 10.716 4.798 22.815 8.671 35.41 11.168zM361.327 655.546l-28.183-5.709c-8.567-1.629-16.123-3.929-23.314-6.932-4.339-1.819-8.57-5.167-11.679-9.392-2.653-4.115-4.197-9.043-4.197-14.331 0-0.376 0.008-0.75 0.023-1.123-0.079-0.656-0.123-1.478-0.123-2.311 0-6.761 2.91-12.841 7.546-17.058 5.319-3.8 11.93-6.066 19.070-6.066 0.645 0 1.286 0.018 1.921 0.055 7.787 0.028 15.238 1.81 21.907 4.972 6.395 2.798 12.139 6.69 17.044 11.443zM523.924 678.382h-44.877v88.67h44.66zM479.047 192.542h44.66v-88.525h-44.66z" />
<glyph unicode="&#xe90e;" glyph-name="oszilloskop-numerical-value" d="M181.964 322.547h72.265v243.317c-8.878-6.787-18.912-13.432-29.386-19.394-9.549-5.691-19.079-10.315-29.049-14.038l-15.132-0.388v41.625c11.642 5.278 21.553 10.898 30.899 17.284 11.872 7.764 22.568 15.61 32.832 23.966 6.797 5.173 13.421 11.362 19.387 18.144l35.036 0.153v-310.741h70.748v-42.781h-187.89zM399.627 310.262c10.406 23.331 22.217 43.394 35.958 61.941 14.89 19.768 30.232 37.951 46.513 55.24q21.374 22.725 34.020 37.467c7.776 9.247 14.658 19.686 20.253 30.88 5.656 11.122 8.748 23.177 8.797 35.949q0 31.596-13.875 46.049t-44.154 14.453c-0.358 0.004-0.781 0.007-1.204 0.007-7.79 0-15.383-0.845-22.691-2.448-7.54-1.817-14.767-4.497-21.544-7.935-10.439-5.367-19.517-10.719-28.264-16.529l-16.917 36.805c12.096 10.296 26.35 18.491 41.942 23.795 16.078 5.719 33.578 8.87 51.814 8.87 0.168 0 0.336 0 0.504-0.001 0.892 0.026 1.973 0.040 3.057 0.040 18.874 0 36.711-4.445 52.519-12.344 14.347-7.475 26.37-19.266 34.225-33.659 7.895-15.157 12.4-32.592 12.4-51.079 0-1.096-0.016-2.189-0.047-3.277-0.643-22.915-7.499-44.262-18.942-62.429-17.213-27.335-36.932-51.442-59.257-72.854-23.354-22.147-43.364-47.218-59.606-74.775l150.384-1.592v-43.359h-205.812zM652.556 345.166l4.842-2.746q14.453-8.238 24.426-13.152c6.36-3.125 13.835-5.916 21.609-7.971 8.591-2.262 17.461-3.45 26.608-3.45 0.299 0 0.598 0.001 0.896 0.004q31.317 0 47.722 16.115t16.26 46.828q0 28.4-15.537 42.058t-50.586 15.754l-26.016 1.662v40.469l25.004 1.662c0.301-0.006 0.656-0.009 1.012-0.009 15.757 0 30.031 6.351 40.4 16.634q13.654 15.1 13.654 44.15c0.055 0.854 0.086 1.851 0.086 2.856 0 12.949-5.16 24.693-13.537 33.287-9.284 7.965-21.459 12.82-34.767 12.82-1.214 0-2.419-0.040-3.613-0.12 0.128 0.009 0.087 0.009 0.046 0.009-14.093 0-27.517-2.869-39.717-8.056-11.851-4.806-22.482-12.166-31.162-21.383l-19.337 38.906c12.001 10.581 26.039 19.207 41.399 25.185 14.587 5.287 30.329 8.156 46.742 8.156 0.948 0 1.894-0.010 2.837-0.029 0.704 0.023 1.7 0.035 2.698 0.035 18.085 0 35.247-3.952 50.67-11.040 13.71-6.413 25.489-16.846 33.665-29.783 7.743-12.864 12.208-27.995 12.208-44.17 0-0.619-0.007-1.236-0.020-1.851 0.020-0.657 0.031-1.538 0.031-2.422 0-19.81-5.379-38.364-14.755-54.281-8.927-14.918-22.765-26.748-39.294-33.206l-0.541 11.593c19.983-4.458 36.931-15.311 49.012-30.259 11.117-14.617 17.733-32.915 17.733-52.759 0-0.971-0.016-1.938-0.047-2.901q0.004-52.613-29.336-80.291t-85.201-27.75c-0.774-0.013-1.687-0.021-2.601-0.021-13.699 0-27.002 1.694-39.712 4.884-9.866 2.496-19.49 6.235-28.48 11.011-9.051 5.151-17.17 10.362-24.981 15.975z" />
<glyph unicode="&#xe90f;" glyph-name="oszilloskop-y-axis" d="M269.261 345.745q13.152 0 18.861 20.090l7.227 23.703-73.711 192.948v4.48h41.047l51.887-142.507 38.734 142.507h38.951v-4.48l-65.617-218.675c-3.086-11.023-7.103-20.62-12.125-29.578-3.491-6.022-8.971-11.386-15.557-14.976-7.051-3.417-15.085-5.351-23.571-5.351-0.756 0-1.509 0.015-2.258 0.046-0.801-0.041-1.867-0.063-2.938-0.063-10.408 0-20.339 2.039-29.417 5.74l8.326 29.658c5.617-2.25 12.128-3.555 18.944-3.555 0.428 0 0.856 0.005 1.281 0.015zM615.484 666.025l-123.285-154.070-27.967 22.475 169.245 211.448 169.39-211.159-27.967-22.764-123.429 154.070v-430.485l123.429 153.564 27.967-22.475-169.39-210.726-169.245 210.87 27.967 22.33 123.429-153.925z" />
<glyph unicode="&#xe910;" glyph-name="oszilloskop-x-axis" d="M825.27 394.235l-153.925 123.212 22.402 27.967 211.087-169.173-211.087-169.462-22.475 27.967 153.925 123.429h-626.107l153.925-123.429-22.475-27.967-211.087 169.462 211.159 169.173 22.475-27.967-153.997-123.429zM424.198 473.221l65.039 99.076-58.679 90.187v3.613h43.359l42.42-67.424 43.359 67.351h40.469v-3.613l-62.437-93.078 62.437-96.113v-3.613h-44.66l-44.877 72.265-46.178-72.265h-40.252z" />
<glyph unicode="&#xe911;" glyph-name="oszilloskop-soll-limiting-curve" d="M891.971 721.886h-205.884c14.711-1.211 28.305-4.631 40.91-9.938 26.641-11.105 48.756-30.956 62.746-55.968 7.319-13.026 12.391-27.465 14.701-42.808l0.086-1.779 24.787-222.794h62.293v-44.66h-254.446v-227.202h-504.557v44.877h220.626c-45.009 3.229-83.352 29-104.087 65.975-7.325 13.029-12.397 27.468-14.704 42.813l-0.086 1.778-23.848 212.171h-75.59v44.66h259.433v237.608h497.619zM576.967 676.72c21.894 25.438 53.14 42.296 88.342 45.207l-225.863 0.031v-237.608h-183.843l22.836-206.679c2.147-14.064 7.545-26.576 15.405-37.149 15.591-21.092 40.626-34.761 68.854-34.761 38.309 0 70.737 25.176 81.643 59.885l107.695 366.486c5.581 17.208 14.098 32.069 25.068 44.749zM745.2 642.827c-15.735 21.296-40.749 34.953-68.954 34.953-37.832 0-69.924-24.574-81.185-58.631l-107.776-366.050c-5.441-17.627-13.927-32.886-24.946-45.937-10.815-12.908-24.146-23.63-39.238-31.415-15.177-7.874-32.125-12.829-50.088-14.112l219.562-0.024v226.985h192.081l-24.209 217.302c-2.147 14.064-7.545 26.576-15.405 37.149z" />
<glyph unicode="&#xe912;" glyph-name="oszilloskop-aufnahmepunkte" d="M838.278 486.228c6.82-9.106 10.921-20.592 10.921-33.036 0-10.273-2.795-19.893-7.665-28.142-4.806-8.186-11.649-15.029-19.832-19.835-8.003-4.688-17.314-7.374-27.251-7.374-0.267 0-0.534 0.002-0.8 0.006-0.162-0.003-0.4-0.005-0.639-0.005-9.989 0-19.35 2.684-27.403 7.371-8.219 4.79-15.089 11.637-19.905 19.835-4.868 8.242-7.662 17.854-7.662 28.118s2.794 19.876 7.662 28.116c4.809 8.185 11.651 15.027 19.833 19.835l-12.458 116.2c-2.141 13.197-7.025 24.957-14.060 35.114-6.87 9.955-15.828 18.359-26.241 24.58-5.373-6.267-11.593-11.54-18.725-15.321-7.457-3.717-15.886-5.806-24.803-5.806s-17.345 2.089-24.823 5.804c-7.316 3.663-13.711 8.903-18.736 15.274-9.043-5.278-16.643-11.889-22.946-19.6-6.332-7.837-11.264-16.854-14.414-26.669l-40.342-135.144c6.019-5.13 10.89-11.412 14.307-18.524 3.475-7.114 5.422-15.087 5.422-23.515 0-0.108 0-0.216-0.001-0.325 0.001-0.106 0.002-0.251 0.002-0.396 0-9.343-2.355-18.137-6.503-25.819-4.133-7.695-10.036-14.292-17.165-19.249-7.123-5.022-15.496-8.372-24.56-9.487l-39.503-133.717c-11.257-36.357-37.098-65.267-70.512-80.391-2.565-9.057-6.208-16.733-11.307-23.208-5.087-6.503-11.552-11.859-18.959-15.635-7.545-3.881-16.089-6.070-25.144-6.070s-17.599 2.189-25.132 6.065c-7.524 3.933-14.049 9.511-19.098 16.257-5.092 6.712-8.673 14.618-10.244 23.225-24.732 12.198-44.553 30.857-57.528 53.887-7.362 13.064-12.544 27.528-15.049 42.892l-0.101 1.838-13.152 116.853c-11.53 3.54-21.127 10.517-27.861 19.722-6.865 9.24-10.927 20.684-10.927 33.077 0 30.652 24.848 55.5 55.5 55.5s55.5-24.848 55.5-55.5c0-10.235-2.771-19.824-7.603-28.056-4.773-8.141-11.626-14.924-19.828-19.617l12.671-116.197c3.998-25.163 18.68-46.264 39.163-58.832 5.68 5.824 12.151 10.699 19.449 14.095 7.3 3.824 15.518 6.029 24.239 6.146 0.086 0.001 0.145 0.001 0.203 0.001 8.979 0 17.453-2.163 24.929-5.997 7.497-3.755 14.019-9.144 19.109-15.701 9.47 5.273 17.38 12.101 23.814 20.159 6.572 8.174 11.68 17.579 14.921 27.814l39.334 133.938c-6 5.17-10.868 11.47-14.304 18.591-3.428 7.234-5.343 15.318-5.343 23.849 0 9.45 2.35 18.352 6.497 26.152 4.147 7.718 10.046 14.357 17.165 19.381 7.103 5.091 15.477 8.492 24.555 9.63l40.082 135.308c11.394 34.994 36.317 62.839 68.437 77.858 2.419 9.128 5.999 16.89 11.073 23.435 5.059 6.611 11.529 12.065 18.962 15.917 7.441 3.884 15.883 6.075 24.837 6.075 0.119 0 0.237 0 0.355-0.001 0.084 0.001 0.204 0.001 0.324 0.001 9.001 0 17.49-2.191 24.963-6.069 7.526-3.86 14.051-9.368 19.108-16.050 5.139-6.626 8.768-14.458 10.383-23.001 11.691-5.836 21.72-12.35 30.746-20.011 22.374-19.578 38.053-46.705 43.060-77.416l0.102-1.84 12.935-116.709c11.489-3.522 21.072-10.416 27.865-19.514z" />
<glyph unicode="&#xe913;" glyph-name="calculator" d="M741.804 733.593v-542.93h-459.102v542.93zM696.927 688.933h-369.493v-453.61h369.493zM644.824 591.88h-259.36v44.732h259.433zM439.012 466.5h-53.549v44.732h53.549zM439.012 379.782h-53.549v44.805h53.549zM385.463 293.063v44.949h53.549v-44.877zM488.369 511.232h53.621v-44.66h-53.621zM488.369 424.514h53.621v-44.66h-53.621zM488.369 337.795h53.621v-44.877h-53.621zM591.275 511.232h53.549v-44.66h-53.549zM591.275 424.514h53.549v-44.66h-53.549zM591.275 337.795h53.549v-44.877h-53.549z" />
<glyph unicode="&#xe914;" glyph-name="usb-datenträger-auswerfen" d="M825.704 371.254h-625.962l313.343 374.407zM824.403 233.95h-623.578v45.166h623.65zM295.493 416.131h434.387l-216.796 259.866z" />
<glyph unicode="&#xe915;" glyph-name="fuction-wizard" d="M333.288 168.405l-37.939 23.703 219.831 350.848 37.939-23.775zM339.214 456.6l-10.189 43.359 75.156 17.344 9.973-43.359zM413.141 569.767l-65.4 41.119 23.703 37.939 65.4-41.047zM479.842 638.347l-17.344 74.867 43.359 9.973 17.344-75.156zM552.107 323.487l-17.344 74.867 43.359 9.973 17.127-74.939zM613.533 615.945l-37.939 23.703 40.902 65.039 37.939-23.703zM686.521 398.137l-65.039 40.902 23.703 37.939 65.039-40.902zM654.074 529.009l-10.189 43.359 75.156 17.127 9.973-43.359z" />
<glyph unicode="&#xe916;" glyph-name="user-log-out" d="M263.118 153.157v572.775h494.223v-153.058h-44.66v108.398h-404.686v-483.238h404.686v106.519h44.66v-151.179zM662.456 461.875h-315.077v-44.66h315.077l-147.566-118.154 27.75-34.904 218.747 175.533-218.747 175.533-27.75-34.76z" />
<glyph unicode="&#xe917;" glyph-name="user-log-in" d="M426.366 299.639l147.71 118.371h-340.514v44.949h340.514l-147.71 118.154 27.967 34.76 218.603-175.388-218.747-175.533zM292.458 726.8v-193.527h44.66v148.867h404.686v-483.238h-404.686v148.65h-44.66v-193.31h494.223v572.558z" />
<glyph unicode="&#xe918;" glyph-name="application-minimize" d="M788.993 153.952h-553.553v572.631h553.553zM280.1 198.612h464.233v483.311h-464.16zM672.501 279.044h-320.569v45.021h320.641z" />
<glyph unicode="&#xe919;" glyph-name="meldungskategorie-bedienjournal" d="M571.908 231.276l-290.507 463.293 37.939 23.703 290.507-463.365zM669.105 292.051l-290.507 463.293 37.939 23.992 290.507-463.365zM738.335 115.218l-103.773 46.178 107.964 67.568z" />
<glyph unicode="&#xe91a;" glyph-name="information" d="M512.217 115.868c-0.655-0.005-1.429-0.008-2.203-0.008-59.359 0-114.911 16.303-162.422 44.675-48.039 28.252-88.156 68.369-116.377 116.328-28.394 48.355-44.674 104.683-44.674 164.813s16.28 116.458 44.673 164.816c28.222 47.956 68.34 88.073 116.298 116.295 48.321 28.389 104.612 44.667 164.705 44.667s116.385-16.278 164.705-44.666c47.959-28.223 88.076-68.341 116.297-116.299 28.394-48.355 44.674-104.683 44.674-164.813s-16.28-116.458-44.673-164.816c-28.222-47.956-68.34-88.073-116.298-116.295-47.591-28.402-103.142-44.705-162.502-44.705-0.775 0-1.549 0.003-2.322 0.008zM512.217 722.897c-0.568 0.004-1.241 0.007-1.914 0.007-51.242 0-99.19-14.102-140.175-38.636-41.473-24.453-76.095-59.144-100.436-100.6-24.541-41.729-38.613-90.343-38.613-142.244s14.072-100.515 38.61-142.235c24.379-41.373 58.994-75.988 100.363-100.363 41.712-24.582 90.329-38.681 142.238-38.681s100.525 14.099 142.228 38.676c41.377 24.383 75.991 58.997 100.369 100.365 24.534 41.725 38.602 90.339 38.602 142.238s-14.068 100.513-38.599 142.236c-24.391 41.449-59.060 76.119-100.506 100.507-41.035 24.519-88.94 38.594-140.133 38.594-0.715 0-1.43-0.003-2.144-0.008zM492.705 543.535c-4.287 4.665-6.915 10.913-6.915 17.776 0 0.891 0.044 1.772 0.131 2.641-0.077 0.592-0.116 1.407-0.116 2.23 0 6.782 2.625 12.952 6.914 17.548 4.811 3.729 10.952 5.987 17.62 5.987 0.737 0 1.468-0.028 2.191-0.082q26.136 0.006 26.136-25.865c0.087-0.797 0.136-1.721 0.136-2.657 0-6.825-2.635-13.034-6.944-17.666-4.853-3.842-11.084-6.173-17.86-6.173-0.576 0-1.148 0.017-1.716 0.050-0.525-0.049-1.229-0.075-1.939-0.075-6.692 0-12.843 2.314-17.697 6.186zM534.764 497.502v-218.386h-45.021v218.386z" />
<glyph unicode="&#xe91b;" glyph-name="warning" d="M904.112 136.825h-783.718l391.967 628.058zM200.898 181.485h622.927l-311.464 499.137zM485.045 523.517h58.679v-12.068l-12.935-196.995h-32.158l-13.586 196.995zM513.951 285.475q29.412 0 29.412-27.75t-29.123-27.605q-28.906 0-28.906 27.316t28.906 28.039z" />
<glyph unicode="&#xe91c;" glyph-name="visu-gruppe-help" d="M456.211 385.418c-0.041 1.505-0.064 3.276-0.064 5.053 0 17.798 2.317 35.055 6.666 51.486 3.339 12.125 9.384 23.914 17.403 34.073 9.437 10.876 19.873 20.739 31.215 29.487q4.978 3.982 14.227 10.775 18.644 13.947 29.846 24.281c7.473 6.884 13.818 14.84 18.826 23.655 5.168 9.194 8.064 19.611 8.064 30.705 0 0.35-0.003 0.7-0.009 1.048q0.001 40.994-19.294 59.783t-61.426 18.717c-0.084 0-0.183 0-0.282 0-11.355 0-22.327-1.637-32.694-4.687-9.81-2.804-18.971-6.447-27.655-10.892q-11.346-5.812-26.377-14.917c-1.072-0.746-2.325-1.513-3.62-2.209l-18.204 39.282c8.388 6.636 17.883 12.544 28.013 17.326 12.065 5.876 25.208 10.813 38.872 14.478 14.215 3.87 28.766 5.923 43.787 5.991q61.898 0 93.984-29.99t32.303-87.369c0.022-0.827 0.035-1.802 0.035-2.779 0-16.196-3.444-31.588-9.64-45.482-5.474-12.033-13.133-22.907-22.466-32.083-10.106-9.45-21.047-18.326-32.586-26.405l-4.573-3.166c-13.158-9.103-24.665-18.385-35.453-28.428-7.764-8.324-13.856-18.665-17.372-30.133-4.426-14.038-6.892-29.548-6.892-45.635 0-1.935 0.036-3.862 0.106-5.78l-0.008-45.901h-44.732zM483.744 285.042c1.079 0.126 2.328 0.198 3.594 0.198 18.080 0 32.736-14.656 32.736-32.736 0-1.266-0.072-2.516-0.212-3.745 0.056-0.488 0.080-1.234 0.080-1.985 0-9.226-3.602-17.61-9.476-23.824-6.355-5.721-14.83-9.231-24.124-9.231-0.787 0-1.568 0.025-2.343 0.075-0.738-0.084-1.718-0.129-2.709-0.129-17.8 0-32.23 14.43-32.23 32.23 0 1.061 0.051 2.11 0.152 3.145-0.054 0.537-0.080 1.319-0.080 2.106 0 9.295 3.51 17.77 9.276 24.172 6.154 6.017 14.626 9.751 23.969 9.751 0.481 0 0.959-0.010 1.435-0.029z" />
<glyph unicode="&#xe91d;" glyph-name="visu-gruppe-production" d="M443.492 463.971l147.999 118.371v-118.371l147.783 118.371v-410.034h-454.188v567.211h158.406zM330.18 694.425v-477.529h364.506v272.079l-116.058-92.644h-32.014v92.644l-115.841-92.644h-31.941v298.095z" />
<glyph unicode="&#xe91e;" glyph-name="visu-gruppe-diagnose" d="M838.784 350.080c-7.217-14.468-17.218-26.55-29.391-35.956-12.057-9.229-26.258-15.807-41.726-18.86-3.619-21.169-9.599-40.212-18.194-57.739-8.099-16.418-19.061-31.399-32.199-44.15-14.728-14.511-32.268-26.135-51.734-33.987-19.471-7.878-40.834-12.23-63.213-12.23-0.252 0-0.504 0.001-0.756 0.002-0.040 0-0.134 0-0.228 0-30.322 0-58.798 7.903-83.481 21.762-25.836 14.434-47.378 35.698-62.168 61.346-15.698 27.631-24.704 59.76-24.704 93.991 0 1.863 0.027 3.72 0.080 5.57l-0.006 56.456c-21.647 3.069-40.962 11.201-57.302 23.157-15.679 11.456-29.432 25.002-40.983 40.304q-17.484 23.546-40.609 61.702l-14.959 24.353-98.859 156.816-0.867 2.746c-1.588 4.412-2.513 9.502-2.529 14.807 0.103 8.172 2.798 15.687 7.299 21.79 3.215 4.405 7.427 8.041 12.305 10.572 4.752 2.596 10.171 4.088 15.935 4.139h49.662c3.709 5.554 8.561 10.060 14.246 13.262 5.775 3.178 12.411 4.985 19.469 4.985 22.35 0 40.469-18.118 40.469-40.469s-18.118-40.469-40.469-40.469c-7.058 0-13.694 1.807-19.471 4.984-5.65 3.169-10.494 7.597-14.151 12.905l-35.141 0.142 89.97-142.29 15.465-25.221q22.258-36.639 37.578-57.306c9.975-13.507 21.949-24.861 35.612-33.859 14.463-8.828 31.33-13.864 49.372-13.864s34.909 5.036 49.271 13.779c13.943 9.044 26.064 20.405 35.887 33.58q15.58 21.033 37.838 57.671 4.842 8.238 15.465 25.221l90.332 142.29h-35.41c-3.695-5.499-8.553-9.94-14.243-13.047-5.769-3.133-12.385-4.914-19.416-4.914-7.451 0-14.436 2-20.446 5.491-5.956 3.42-10.959 8.307-14.518 14.169-3.57 6.005-5.62 13.024-5.62 20.523s2.050 14.518 5.621 20.528c3.561 5.854 8.563 10.741 14.515 14.163 6.004 3.545 12.996 5.579 20.463 5.579 14.052 0 26.423-7.201 33.623-18.114l50.101-0.151c5.828-0.016 11.303-1.513 16.073-4.135 11.633-6.019 19.564-18.139 19.564-32.111 0-0.291-0.003-0.58-0.010-0.869-0.148-5.171-1.062-10.12-2.633-14.767l-0.763-2.39-99.22-156.165-15.32-24.353q-22.691-37.723-39.89-60.992c-11.946-15.9-25.775-29.522-41.36-40.879-16.527-12.058-35.81-20.184-56.743-23.212l-0.684-56.81c-0.009-0.637-0.014-1.389-0.014-2.142 0-20.245 3.689-39.629 10.43-57.516 6.299-16.524 16.29-31.557 28.941-43.872 11.048-10.675 24.161-19.24 38.679-25.036 14.668-5.846 30.739-9.073 47.564-9.073 19.249 0 37.511 4.223 53.911 11.793 16.701 7.816 31.261 19.667 42.356 34.292 12.334 16.487 20.888 36.058 24.314 57.344-15.189 4.624-28.502 11.555-39.737 20.899-11.413 9.38-20.769 21.14-27.317 34.524-6.529 13.486-10.188 28.619-10.188 44.607 0 18.986 5.16 36.767 14.154 52.017 8.857 15.126 21.496 27.765 36.618 36.622 15.21 8.91 32.922 14.018 51.826 14.018s36.616-5.108 51.829-14.020c15.118-8.858 27.756-21.496 36.616-36.617 8.92-15.198 14.034-32.899 14.034-51.795 0-16.698-3.994-32.464-11.079-46.393zM776.13 345.745c17.402 10.182 28.906 28.781 28.906 50.067 0 0.005 0 0.009 0 0.014 0.001 0.127 0.002 0.277 0.002 0.428 0 10.498-2.873 20.324-7.877 28.736-10.039 17.143-28.638 28.647-49.924 28.647-0.005 0-0.009 0-0.014 0-0.127 0.001-0.277 0.002-0.428 0.002-10.498 0-20.324-2.873-28.736-7.877-8.525-4.989-15.656-12.074-20.695-20.546-5.052-8.391-7.954-18.202-7.954-28.691 0-0.17 0.001-0.34 0.002-0.509-0.001-0.071-0.001-0.186-0.001-0.301 0-10.541 2.901-20.404 7.948-28.835 4.942-8.653 12.036-15.886 20.552-20.989 8.416-5.007 18.242-7.88 28.74-7.88 0.151 0 0.301 0.001 0.452 0.002 0.101-0.001 0.247-0.002 0.394-0.002 10.55 0 20.429 2.873 28.898 7.879zM761.677 410.205c3.744-3.551 6.073-8.561 6.073-14.115 0-0.119-0.001-0.237-0.003-0.356 0.001-0.061 0.002-0.154 0.002-0.247 0-5.55-2.267-10.571-5.926-14.187-3.581-3.704-8.592-6.002-14.14-6.002-0.111 0-0.221 0.001-0.331 0.003-0.104-0.003-0.246-0.004-0.389-0.004-5.52 0-10.502 2.301-14.041 5.995-3.667 3.625-5.934 8.645-5.934 14.196 0 0.093 0.001 0.186 0.002 0.279 0 0.007 0 0.033 0 0.058 0 11.175 9.059 20.234 20.234 20.234 0.025 0 0.051 0 0.076 0 0.053 0.001 0.121 0.001 0.189 0.001 5.514 0 10.505-2.238 14.116-5.854z" />
<glyph unicode="&#xe91f;" glyph-name="anlagen-betriebsart-hand" d="M781.405 399.004q0-33.892-14.453-104.929t-36.133-140.267l-4.625-15.898h-286.388l-196.706 271.862 2.602 10.189c2.343 8.366 5.15 15.563 8.566 22.404 4.952 9.977 11.497 19.154 19.277 27.119 8.482 9.068 19.696 15.524 32.329 18.053 4.011 0.882 8.175 1.356 12.449 1.365q27.974 0 57.819-26.232v196.128c0.094 11.355 2.972 22.016 7.982 31.364 10.856 20.76 32.603 34.93 57.66 34.93 0.652 0 1.301-0.010 1.949-0.029 4.025-0.014 8.053-0.355 11.979-0.997 3.812-0.593 7.519-1.449 11.12-2.549l-0.575 0.585c0.267 4.731 0.937 9.158 1.983 13.438 1.466 6.547 3.806 12.771 6.884 18.543 5.384 10.468 13.764 19.22 24.004 25.096 9.988 5.884 21.651 9.268 34.105 9.268 0.284 0 0.568-0.002 0.852-0.005 0.938 0.057 2.085 0.090 3.24 0.090 14.608 0 28.004-5.191 38.443-13.829 9.822-8.74 17.328-20.072 21.433-32.923 3.741 0.889 7.952 2.024 12.318 2.684 4.63 0.777 9.585 1.197 14.638 1.197 0.051 0 0.102 0 0.152 0 0.757 0.034 1.653 0.053 2.554 0.053 13.377 0 25.757-4.271 35.85-11.524 9.139-6.814 16.517-15.86 21.321-26.332 4.255-9.008 6.863-19.019 7.394-29.578l0.008-67.322c6.67 2.021 14.335 3.184 22.273 3.184 12.955 0 25.185-3.099 35.991-8.596 9.454-5.393 17.386-13.463 22.664-23.184 5.688-10.594 9.011-22.786 9.187-35.738l0.001-147.621zM736.673 544.474c0.004 0.166 0.006 0.362 0.006 0.558 0 6.757-2.583 12.911-6.816 17.528-3.821 4.42-9.461 7.212-15.753 7.212-0.147 0-0.293-0.002-0.439-0.005-0.096 0.003-0.236 0.004-0.376 0.004-6.342 0-12.033-2.789-15.914-7.206-3.972-4.358-6.393-10.149-6.393-16.504 0-0.278 0.005-0.555 0.014-0.831l-0.001-100.481h-44.299v231.249c0.027 0.459 0.043 0.996 0.043 1.537 0 6.388-2.164 12.27-5.799 16.954-3.8 4.147-9.314 6.778-15.443 6.778-0.5 0-0.995-0.017-1.486-0.052-0.060 0.006-0.208 0.008-0.357 0.008-6.206 0-11.803-2.608-15.755-6.787-4.002-4.263-6.455-10.003-6.455-16.316 0-0.289 0.005-0.576 0.015-0.862l-0.001-207.36h-45.021v248.81c0.009 0.258 0.014 0.561 0.014 0.865 0 6.471-2.238 12.418-5.982 17.112-3.669 4.392-9.213 7.201-15.414 7.201-0.384 0-0.766-0.011-1.145-0.032-0.066 0.005-0.205 0.006-0.345 0.006-6.342 0-12.033-2.789-15.914-7.206-3.972-4.358-6.393-10.149-6.393-16.504 0-0.278 0.005-0.555 0.014-0.831l-0.001-249.42h-44.805v185.288c0 0.059 0.001 0.129 0.001 0.199 0 6.52-2.29 12.505-6.11 17.194-4.061 4.606-10.034 7.527-16.69 7.527s-12.629-2.922-16.708-7.552c-3.426-4.421-5.507-9.994-5.585-16.050v-314.517l-46.756 57.234c-9.229 12.55-19.549 23.467-31.059 32.997-7.040 6.491-15.742 10.703-25.384 11.859-6.149-0.308-11.328-3.282-14.63-7.732-4.573-5.381-8.346-11.544-11.075-18.244l172.407-235.531h227.636q15.031 52.971 29.557 117.142c7.742 29.235 12.923 63.178 14.419 98.076z" />
<glyph unicode="&#xe920;" glyph-name="anlagen-betriebsart-benutzereingaben" d="M774.468 515.857c4.598-9.886 7.281-21.459 7.281-33.66 0-1.048-0.020-2.091-0.059-3.129q0.004-42.631-22.47-141.418t-43.359-177.556l-1.879-7.227-4.264-16.91h-272.224l-195.116 272.079 3.324 9.973c2.668 8.447 5.657 15.623 9.188 22.474 5.027 10.085 11.742 19.408 19.726 27.47 8.657 9.061 20.052 15.455 32.855 17.854 3.692 0.754 7.499 1.153 11.4 1.153 0.368 0 0.735-0.004 1.102-0.011 10.197-0.104 19.969-2.030 28.994-5.467 10.144-3.783 19.418-9.007 27.698-15.448l-0.235 225.355c-0.001 0.175-0.002 0.381-0.002 0.588 0 13.419 3.26 26.077 9.031 37.225 5.581 10.961 13.95 20.325 24.168 27.134 10.080 6.69 22.141 10.576 35.11 10.576 0.299 0 0.598-0.002 0.897-0.006 0.495 0.016 1.131 0.024 1.769 0.024 13.095 0 25.342-3.636 35.784-9.953 10.128-6.41 18.332-15.683 23.449-26.683 5.376-11.632 8.418-24.794 8.418-38.666 0-0.643-0.007-1.285-0.020-1.925l0.002-63.859c16.654-0.504 32.468-3.321 47.382-8.141 13.067-3.671 25.163-11.531 34.273-22.047 1.296-0.067 2.733-0.054 4.174-0.054 14.080 0 27.862-1.275 41.236-3.717 12.73-1.945 25.262-7.534 35.709-15.675 5.062-4.173 9.444-9.292 12.831-15.066 12.466-0.493 24.285-2.219 35.559-5.27 10.966-2.819 21.38-8.354 30.088-15.822 7.365-6.657 13.5-14.709 17.973-23.732zM681.462 208.44l5.926 24.281q23.269 95.463 36.494 157.249c6.684 26.045 11.403 56.505 13.167 87.755 0.135 2.138 0.179 3.14 0.179 4.153 0 9.471-3.86 18.040-10.092 24.22-3.73 2.961-8.153 5.227-12.974 6.521-5.024 1.485-10.669 2.606-16.469 3.204l-0.405-73.677h-44.588v93.945c-0.504 2.119-1.628 3.925-3.168 5.265-4.738 3.396-10.414 5.773-16.563 6.704-7.682 1.519-16.372 2.482-25.247 2.697l-0.188-66.047h-44.66v81.804c-4.965 5.413-11.642 9.183-19.17 10.451-8.582 2.167-18.339 3.617-28.356 4.063l-0.314-73.194h-44.66v180.013c0.029 0.622 0.046 1.35 0.046 2.083 0 8.41-2.187 16.31-6.023 23.161-4.234 5.52-11.074 9.203-18.774 9.203s-14.54-3.683-18.854-9.383c-3.659-6.408-5.791-14.009-5.791-22.108 0-0.658 0.014-1.313 0.042-1.964l-0.003-343.095-40.035 51.236c-10.033 13.856-21.998 25.568-35.647 35.020-7.775 5.475-16.625 8.907-26.207 9.84-6.265-0.315-11.554-3.28-15.002-7.741-4.785-5.471-8.826-11.687-11.909-18.433l168.184-235.554h214.484q3.396 14.959 6.576 28.328z" />
<glyph unicode="&#xe921;" glyph-name="visu-gruppe-prozessdaten" d="M801.278 709.456l-95.318-76.24h-93.945l-156.093-124.947h-92.355l-140.412-112.445v57.379l124.513 99.726h92.572l156.238 125.236h93.945l110.927 88.959zM381.344 367.424h-158.189v-154.576h158.189zM267.815 322.547h68.58v-65.039h-68.58zM591.203 445.398h-158.189v-232.911h158.189zM477.891 400.883h68.652v-143.591h-68.652zM801.278 568.177h-158.117v-355.546h158.189zM687.749 523.517h68.797v-266.226h-68.797z" />
<glyph unicode="&#xe922;" glyph-name="anlagen-betriebsart-automatik" d="M824.475 423.358c19.056-15.967 34.457-35.621 45.221-57.931 10.865-22.66 16.95-48.053 16.95-74.868 0-31.968-8.649-61.916-23.735-87.632-14.996-25.501-36.327-46.833-61.831-61.829-25.701-15.067-55.631-23.705-87.579-23.705-25.632 0-49.965 5.56-71.859 15.54-21.587 9.879-40.811 24.014-56.603 41.333-15.835 17.131-28.169 37.5-35.901 60.009-10.114-3.174-21.939-7.369-34.129-10.68l-1.782-61.621h-130.222v60.92c-24.526 6.524-46.014 15.722-65.765 27.525l-42.2-44.001-92.283 92.644 43.359 43.359c-11.314 18.595-20.525 40.1-26.506 62.912l-61.803 1.693v130.656h61.426c6.36 24.506 15.571 46.010 27.493 65.69l-43.969 42.275 92.283 92.355 43.359-43.359c18.595 11.311 40.099 20.521 62.91 26.505l1.695 61.514h130.728v-61.136c24.434-6.444 45.857-15.672 65.482-27.57l42.266 43.975 92.572-92.211-43.359-43.359c11.032-18.583 20.219-40.057 26.449-62.754l61.642-1.851v-80.142c25.34-6.943 47.34-18.756 65.944-34.464zM540.617 280.706q0 3.396 0 9.973c-0.003 0.392-0.005 0.856-0.005 1.32 0 31.491 8.649 60.962 23.7 86.167 15.021 25.52 36.351 46.826 61.847 61.804 25.264 15.068 54.748 23.717 86.252 23.717 0.451 0 0.901-0.002 1.351-0.005h0.581v29.34h-54.271c-2.101 22.554-7.51 43.307-15.76 62.553-8.133 19.057-18.929 36.646-31.932 52.343l38.008 37.801-28.906 28.906-38.084-38.084c-15.398 12.666-33.030 23.458-52.058 31.617-19.326 8.304-40.089 13.781-61.829 15.936l-0.87 53.907h-40.902v-53.765c-22.59-2.254-43.325-7.728-62.581-15.988-19.028-8.12-36.618-18.917-52.314-31.92l-37.729 38.37-28.906-28.906 38.084-38.084c-12.717-15.341-23.514-32.931-31.63-51.94-8.264-19.276-13.738-40.010-15.921-61.716l-53.982-0.885v-41.119h53.765c4.412-44.079 21.663-83.457 47.907-115.11l-38.729-37.876 28.906-28.906 38.084 38.084c31.372-26.043 70.852-43.348 114.153-47.695l0.893-53.838h41.047v53.765c26.593 2.751 50.919 9.925 73.103 20.797zM497.619 387.225c15.099 8.808 27.325 21.034 35.881 35.667 8.568 14.6 13.48 31.602 13.48 49.751s-4.912 35.151-13.479 49.748c-8.568 14.627-20.791 26.851-35.416 35.417-14.598 8.575-31.6 13.492-49.751 13.492s-35.152-4.917-49.747-13.49c-14.624-8.574-26.846-20.795-35.418-35.416-8.575-14.598-13.492-31.6-13.492-49.751s4.917-35.152 13.49-49.747c8.563-14.633 20.787-26.857 35.416-35.419 14.6-8.568 31.602-13.48 49.751-13.48s35.151 4.912 49.748 13.479zM475.145 519.181c8.151-4.787 14.752-11.411 19.375-19.33 4.666-7.953 7.342-17.214 7.342-27.1s-2.675-19.147-7.342-27.099c-4.643-7.884-11.239-14.48-19.123-19.122-7.951-4.666-17.212-7.342-27.098-7.342s-19.147 2.675-27.099 7.342c-7.921 4.623-14.544 11.224-19.195 19.124-4.666 7.95-7.341 17.211-7.341 27.097s2.675 19.147 7.342 27.099c4.65 7.943 11.303 14.572 19.265 19.195 7.954 4.666 17.215 7.341 27.101 7.341s19.147-2.675 27.099-7.342zM777.864 179.534c19.548 11.442 35.386 27.28 46.501 46.224 11.183 19.036 17.596 41.211 17.596 64.884s-6.413 45.848-17.596 64.882c-11.115 18.946-26.953 34.784-45.897 45.898-19.072 11.181-41.284 17.591-64.992 17.591s-45.92-6.41-64.995-17.593c-18.941-11.113-34.779-26.951-45.894-45.896-11.183-19.036-17.596-41.211-17.596-64.884s6.413-45.848 17.596-64.882c11.136-18.95 26.998-34.789 45.967-45.898 19.075-11.181 41.286-17.592 64.994-17.592s45.92 6.41 64.995 17.593zM788.126 287.21l-107.531 67.062v-134.269z" />
<glyph unicode="&#xe923;" glyph-name="calendar-taxi" d="M744.333 709.601v-535.342h-464.088v535.342zM699.529 603.154v61.787h-374.335v-61.859zM699.529 558.494h-374.335v-339.214h374.335zM454.549 271.094h130.8v32.158h-45.238v206.245h-28.906c-8.286-7.705-17.35-14.84-26.973-21.197-9.906-6.94-20.326-13.1-31.242-18.399l-1.332-33.609h2.963c9.191 3.218 17.088 6.975 24.5 11.454 7.876 4.293 15.161 9.25 21.917 14.825l-0.239-159.175h-46.25z" />
<glyph unicode="&#xe924;" glyph-name="arrow-down" d="M686.521 598.673l34.543-27.533-208.775-260.155-208.775 259.938 34.254 27.75 174.521-217.663z" />
<glyph unicode="&#xe925;" glyph-name="arrow-up" d="M337.841 310.696l-34.326 27.822 208.847 260.155 208.775-260.155-34.615-27.822-174.159 217.446z" />
<glyph unicode="&#xe926;" glyph-name="arrow-right" d="M368.553 618.185l27.533 34.543 260.155-208.775-260.155-208.775-27.533 34.182 217.302 174.521z" />
<glyph unicode="&#xe927;" glyph-name="arrow-left" d="M656.097 269.36l-27.389-34.254-260.155 208.775 260.155 208.775 27.533-34.543-217.591-174.232z" />
<glyph unicode="&#xe928;" glyph-name="external-link2" d="M214.267 655.618h189.118v-44.66h-144.531v-404.686h432.725v154.792h44.66v-199.669h-521.973zM735.155 489.408l20.74 187.89-283.641-283.858-31.435 31.797 283.786 283.786-187.89-20.523-4.842 44.226 278.872 30.713-30.496-279.089z" />
<glyph unicode="&#xe929;" glyph-name="document-remove" d="M794.919 601.419v-484.9h-553.769v650.388h387.993zM750.042 562.541h-159.49v159.779h-304.671v-561.14h464.16zM618.953 384.768h-206.029v44.732h206.029zM635.285 607.562h90.187l-90.187 90.187z" />
<glyph unicode="&#xe92a;" glyph-name="document-new" d="M788.993 601.419v-484.9h-553.553v650.388h387.993zM744.333 562.541h-159.417v159.779h-304.743v-561.14h464.16zM532.596 423.141h80.648v-44.66h-80.648v-91.488h-44.732v91.416h-80.648v44.732h80.648v91.705h44.732zM629.576 607.562h90.187l-90.187 90.187z" />
<glyph unicode="&#xe92b;" glyph-name="document" d="M788.993 601.419v-484.9h-553.553v650.388h387.993zM744.333 562.541h-159.417v159.779h-304.743v-561.14h464.16zM629.576 607.562h90.187l-90.187 90.187z" />
<glyph unicode="&#xe92c;" glyph-name="upload" d="M744.333 251.8v-114.757h-464.305v114.757h45.166v-70.097h374.335v70.097zM490.104 666.675v-402.373h44.226v402.373l152.191-189.769 34.398 27.822-208.775 260.155-208.63-260.155 34.543-27.75z" />
<glyph unicode="&#xe92d;" glyph-name="download" d="M744.333 251.8v-114.757h-464.305v114.757h45.166v-70.097h374.335v70.097zM303.514 524.312l208.558-260.155 208.775 260.155-34.326 27.75-151.757-189.769v392.473h-44.66v-392.401l-151.757 189.769z" />
<glyph unicode="&#xe92e;" glyph-name="menu" d="M778.515 627.579h-532.812v44.805h532.596zM778.515 431.090h-532.812v44.732h532.596zM778.515 234.6h-532.812v44.732h532.596z" />
<glyph unicode="&#xe92f;" glyph-name="close" d="M543.869 442.58l194.394-194.394-31.58-31.797-194.322 194.394-194.394-194.322-31.797 31.797 194.394 194.322-194.394 194.394 31.797 31.58 194.394-194.394 194.394 194.394 31.58-31.58z" />
<glyph unicode="&#xe930;" glyph-name="check" d="M349.186 211.981l-127.693 203.282 37.939 23.92 101.171-160.935 414.659 330.108 27.967-34.904z" />
<glyph unicode="&#xe931;" glyph-name="minus" d="M736.601 419.094h-448.696v44.66h448.696z" />
<glyph unicode="&#xe932;" glyph-name="plus" d="M771.577 419.094h-236.814v-236.958h-44.805v236.958h-237.030v44.66h237.030v236.958h44.805v-236.958h236.958z" />
<glyph unicode="&#xe933;" glyph-name="oszilloskop-aufzeichnung-verkleinern" d="M419.717 733.954l44.299 4.842 30.93-279.089-279.161 31.002 4.842 44.226 187.89-20.523-206.173 205.812 31.797 31.797 206.101-206.101zM604.789 150.628l-44.226-4.842-30.93 279.45 279.089-30.93-4.842-44.226-187.89 20.523 206.029-205.812-31.797-31.797-205.956 205.523z" />
<glyph unicode="&#xe934;" glyph-name="oszilloskop-aufzeichnung-zoom" d="M285.593 477.99l-44.443-5.059-30.496 279.089 278.872-30.496-4.842-44.226-188.396 20.234 206.318-206.029-31.797-31.58-205.956 205.884zM738.985 422.49l44.443 5.059 30.496-279.089-279.161 31.074 4.842 44.226 187.89-20.523-205.595 205.667 31.797 31.58 206.029-205.812z" />
<glyph unicode="&#xe935;" glyph-name="delet" d="M749.030 625.122v-44.877h-473.483v44.877h115.191v104.423h243.101v-104.423zM670.839 540.861h44.588v-387.125h-406.42v387.125h45.094v-342.393h316.739zM467.195 500.826v-262.323h-44.732v262.323zM589.179 625.122v59.547h-153.781v-59.474zM602.115 500.826v-262.323h-44.732v262.323z" />
<glyph unicode="&#xe936;" glyph-name="table-view" d="M811.973 702.663v-502.895h-599.802v502.895zM257.192 244.573h139.111v413.213h-139.111zM440.819 657.786v-413.213h142.652v413.213zM767.169 657.786h-138.46v-413.213h138.894z" />
<glyph unicode="&#xe937;" glyph-name="down" d="M337.118 469.101l151.757-189.769v429.69h44.226v-429.69l151.757 189.769 34.543-27.533-208.775-260.155-208.558 260.155z" />
<glyph unicode="&#xe938;" glyph-name="up" d="M338.13 423.358l-34.615 27.75 208.558 260.155 208.775-260.155-34.326-27.75-152.119 189.769v-429.69h-44.299v429.69z" />
<glyph unicode="&#xe939;" glyph-name="right" d="M488.297 615.8l27.75 34.543 260.155-208.558-260.155-208.775-27.533 34.543 189.769 151.757h-429.907v44.443h429.69z" />
<glyph unicode="&#xe93a;" glyph-name="left" d="M536.209 615.8l-189.769-151.757h429.69v-44.299h-429.69l189.769-151.757-27.533-34.543-260.155 208.775 260.155 208.558z" />
<glyph unicode="&#xe93b;" glyph-name="log-out" d="M693.747 610.308c31.517-39.182 50.586-89.539 50.586-144.35 0-0.063 0-0.127 0-0.19 0.005-0.566 0.008-1.246 0.008-1.927 0-42.219-11.604-81.728-31.797-115.511-20.098-34.217-48.633-62.799-82.75-82.929-34.404-20.23-74.492-31.83-117.289-31.83s-82.885 11.6-117.29 31.828c-34.224 20.105-62.856 48.691-83.014 82.871-20.215 33.848-31.818 73.362-31.818 115.586 0 0.574 0.002 1.147 0.006 1.72-0.001 0.026-0.001 0.16-0.001 0.294 0 82.448 43.147 154.818 108.093 195.762l25.743-36.943c-18.573-11.523-34.377-25.441-47.572-41.576-13.052-15.917-23.463-34.056-30.579-53.769-7.043-19.628-10.883-40.812-10.883-62.892 0-0.339 0.001-0.677 0.003-1.015-0.004-0.379-0.006-0.888-0.006-1.399 0-34.11 9.374-66.030 25.687-93.326 16.246-27.617 39.309-50.68 66.878-66.908 27.817-16.353 60.226-25.73 94.825-25.73s67.008 9.377 94.824 25.729c27.598 16.22 50.686 39.285 66.933 66.862 16.331 27.349 25.705 59.276 25.705 93.392 0 0.503-0.002 1.006-0.006 1.508 0.001 0.067 0.001 0.237 0.001 0.408 0 22.188-3.92 43.46-11.104 63.161-7.192 19.75-17.619 37.928-30.644 53.906-13.179 16.203-28.987 30.17-46.775 41.257l23.99 37.969c22.639-14.297 41.887-31.545 57.893-51.504zM534.764 474.377h-44.732v248.81h44.732z" />
<glyph unicode="&#xe93c;" glyph-name="share" d="M722.075 328.979c15.050-8.873 27.26-21.082 35.878-35.667 8.713-14.815 13.709-32.079 13.709-50.51s-4.996-35.695-13.708-50.512c-8.631-14.572-20.838-26.779-35.412-35.409-14.792-8.708-32.032-13.701-50.437-13.701s-35.645 4.994-50.438 13.7c-14.578 8.627-26.786 20.835-35.411 35.413-8.703 14.547-13.7 31.535-13.7 49.691 0 0.275 0.001 0.55 0.003 0.825 0.049 11.547 2.084 22.645 5.78 32.951l-155.37 95.712c-9.004-8.97-19.671-16.279-31.496-21.423-12.034-5.144-25.271-7.986-39.171-7.986-18.42 0-35.674 4.99-50.485 13.693-14.57 8.634-26.776 20.84-35.409 35.412-8.713 14.815-13.71 32.079-13.71 50.51s4.996 35.695 13.708 50.512c8.626 14.576 20.834 26.784 35.412 35.41 14.743 8.711 31.934 13.707 50.292 13.707 13.924 0 27.176-2.874 39.197-8.062 11.89-5.17 22.602-12.477 31.67-21.443l155.144 97.279c-3.48 9.522-5.493 20.514-5.493 31.977 0 0.14 0 0.28 0.001 0.419-0.002 0.192-0.003 0.444-0.003 0.697 0 18.201 4.996 35.236 13.69 49.807 8.624 14.607 20.834 26.817 35.42 35.432 14.792 8.707 32.032 13.701 50.438 13.701s35.645-4.994 50.438-13.7c14.582-8.621 26.791-20.831 35.411-35.413 8.87-14.918 13.963-32.338 13.963-50.946 0-18.254-4.901-35.363-13.458-50.084-8.627-14.566-20.834-26.773-35.411-35.401-14.824-8.699-32.094-13.686-50.528-13.686-13.909 0-27.154 2.839-39.189 7.969-11.773 5.111-22.375 12.425-31.279 21.423l-155.379-96.682c3.375-9.706 5.377-20.896 5.492-32.538-0.078-11.667-2.083-22.787-5.71-33.145l155.011-95.903c8.968 8.992 19.615 16.304 31.431 21.427 12.053 5.2 25.329 8.078 39.277 8.078 18.385 0 35.602-5 50.365-13.715zM379.899 394.018c8.35 4.927 15.118 11.718 19.876 19.83 4.792 8.167 7.539 17.677 7.539 27.829s-2.747 19.662-7.539 27.828c-4.778 8.076-11.541 14.84-19.619 19.617-8.163 4.799-17.674 7.551-27.827 7.551s-19.664-2.752-27.827-7.55c-8.114-4.759-14.905-11.527-19.691-19.62-4.792-8.164-7.539-17.674-7.539-27.826s2.747-19.662 7.539-27.828c4.767-8.128 11.562-14.923 19.69-19.69 8.164-4.798 17.675-7.55 27.828-7.55s19.664 2.752 27.827 7.55zM644.462 689.077c-8.372-4.899-15.163-11.667-19.949-19.761-4.792-8.164-7.539-17.674-7.539-27.826s2.747-19.662 7.539-27.828c4.767-8.128 11.562-14.923 19.69-19.69 8.186-4.804 17.722-7.558 27.9-7.558s19.714 2.754 27.901 7.559c8.125 4.769 14.92 11.564 19.689 19.69 4.792 8.166 7.539 17.676 7.539 27.828s-2.747 19.662-7.539 27.828c-4.789 8.089-11.579 14.856-19.689 19.617-8.188 4.805-17.723 7.559-27.902 7.559s-19.714-2.754-27.901-7.559zM699.745 194.854c8.383 4.913 15.177 11.707 19.949 19.831 4.792 8.166 7.539 17.676 7.539 27.828s-2.747 19.662-7.539 27.828c-4.786 8.091-11.577 14.859-19.689 19.617-8.188 4.804-17.723 7.559-27.902 7.559s-19.714-2.754-27.901-7.559c-8.114-4.756-14.906-11.524-19.69-19.62-4.791-8.164-7.539-17.674-7.539-27.826s2.747-19.662 7.539-27.828c4.77-8.126 11.564-14.92 19.69-19.69 8.186-4.804 17.722-7.558 27.9-7.558s19.714 2.754 27.901 7.559z" />
<glyph unicode="&#xe93d;" glyph-name="reset" d="M789.427 493.744c8.212-25.014 12.948-53.804 12.948-83.699 0-60.59-19.454-116.636-52.456-162.233-16.915-23.259-37.514-43.72-60.93-60.502-36.372-26.812-79.549-44.841-126.466-50.987-11.437-1.483-23.062-2.246-34.865-2.246-0.373 0-0.746 0.001-1.118 0.002-0.162-0.001-0.422-0.001-0.682-0.001-30.752 0-60.317 5.079-87.904 14.443-27.746 9.396-53.495 23.057-76.492 40.206-23.214 17.232-43.6 38.055-60.34 61.646l35.562 26.863c42.099-59.987 110.957-98.715 188.861-98.715 0.167 0 0.334 0 0.5 0.001 10.967 0.087 21.692 0.846 32.218 2.238 18.956 2.528 37.318 7.468 54.612 14.492 17.645 7.158 34.168 16.357 49.331 27.32 38.956 28.148 68.739 68.236 83.981 114.9 7.409 22.667 11.418 46.889 11.418 72.047s-4.009 49.38-11.422 72.061c-7.511 22.971-18.64 44.355-32.709 63.441-28.167 38.977-68.161 68.762-114.716 84.116-22.716 7.415-46.988 11.423-72.196 11.423s-49.48-4.008-72.213-11.422c-40.232-13.45-75.649-37.329-103.058-68.433l-4.85-5.753-42.347-52.32 192.298 41.264 9.322-43.359-281.257-60.053 1.879 286.966h44.082l-0.867-196.995 45.094 55.066c14.613 18.047 31.262 33.618 49.811 46.672 22.855 16.727 48.406 29.991 75.887 38.995 27.008 8.886 55.887 13.698 85.89 13.698 0.002 0 0.004 0 0.006 0 0.037 0 0.081 0 0.124 0 60.742 0 116.943-19.445 162.717-52.451 46.322-33.506 81.724-81.223 99.805-136.76z" />
<glyph unicode="&#xe93e;" glyph-name="language" d="M661.372 699.339c45.188-26.567 81.83-63.209 107.636-107 25.925-44.14 40.789-95.557 40.789-150.445s-14.864-106.306-40.786-150.446c-25.768-43.821-62.42-80.472-106.241-106.24-44.129-25.917-95.534-40.777-150.409-40.777s-106.28 14.86-150.409 40.776c-43.793 25.806-80.435 62.449-106.239 106.242-25.993 44.122-40.901 95.542-40.901 150.445s14.908 106.323 40.896 150.435c25.848 43.773 62.481 80.405 106.244 106.246 44.114 25.983 95.522 40.882 150.409 40.882s106.296-14.9 150.399-40.875zM360.965 644.2c-28.148-21.307-51.303-47.598-68.498-77.731-17.492-30.4-28.721-64.795-31.956-101.486l121.339-0.941c1.842 43.563 9.635 84.665 22.594 123.401 12.269 36.516 30.045 70.968 52.276 102.011-37.121-9.487-68.989-24.789-96.351-45.691zM291.807 318.645c17.872-31.352 41.025-57.617 68.52-78.45 27.422-20.911 59.275-36.25 93.911-44.358-19.628 29.479-37.308 63.86-49.624 100.696-12.841 38.329-20.635 79.431-22.444 122.082l-122.015 0.912c3.416-37.557 14.739-71.842 32.286-102.065zM597.779 464.187c-2.143 44.688-11.316 86.613-26.438 125.569-13.823 36.045-34.144 69.424-59.45 98.328-24.659-28.902-44.98-62.281-58.969-98.795-14.955-38.489-24.128-80.414-26.232-124.192zM426.366 419.527c2.139-44.688 11.312-86.612 26.438-125.567 13.779-35.98 34.104-69.294 59.437-98.095 24.704 28.804 45.029 62.117 58.989 98.579 14.946 38.47 24.119 80.395 26.226 124.172zM732.482 565.214c-17.708 31.396-40.753 57.692-68.171 78.53-27.44 20.912-59.355 36.213-94.061 44.214 19.674-29.569 37.358-64.050 49.647-100.995 12.832-38.328 20.625-79.429 22.44-122.079l121.364-0.915c-3.151 37.612-14.21 72.045-31.501 102.474zM663.685 239.659c28.206 21.224 51.375 47.506 68.506 77.666 17.411 30.406 28.588 64.801 31.805 101.479l-121.267 0.94c-1.845-43.563-9.638-84.665-22.594-123.402-12.195-36.429-29.875-70.81-51.993-101.806 37.019 9.622 68.789 24.854 96.172 45.579z" />
<glyph unicode="&#xe93f;" glyph-name="chat" d="M831.052 730.847v-431.569h-355.835l-173.003-144.531v144.531h-108.398v431.569zM786.247 686.114h-547.771v-342.176h108.398v-93.945l112.011 93.945h327.362z" />
<glyph unicode="&#xe940;" glyph-name="contact" d="M841.819 137.476h-659.205v143.23l217.88 137.304c-32.885 30.284-53.463 73.498-53.621 121.522v62.322c-0.002 0.298-0.003 0.651-0.003 1.004 0 30.116 8.272 58.299 22.668 82.403 14.334 24.412 34.715 44.793 59.085 59.112 24.503 14.402 53.047 22.661 83.521 22.661s59.019-8.258 83.519-22.659c24.343-14.36 44.713-34.731 59.070-59.071 14.457-24.122 22.758-52.297 22.758-82.41 0-0.365-0.001-0.73-0.004-1.095v-62.164c-0.041-24.157-5.361-47.060-14.869-67.632-9.204-20.553-22.473-38.844-38.783-53.887l217.983-137.408zM227.564 182.353h569.812v73.711l-225.107 141.206 0.65 38.084c35.921 21.413 59.624 60.034 59.691 104.197v62.302c0.002 0.232 0.003 0.507 0.003 0.782 0 21.958-6.015 42.51-16.488 60.1-10.437 17.802-25.297 32.662-43.073 43.090-17.873 10.486-38.688 16.498-60.908 16.498s-43.035-6.012-60.909-16.499c-17.775-10.427-32.635-25.288-43.063-43.063-10.482-17.609-16.497-38.155-16.497-60.107 0-0.282 0.001-0.563 0.003-0.845v-62.177c0.021-44.236 23.84-82.905 59.347-103.9l0.994-38.391-224.745-141.279z" />
<glyph unicode="&#xe941;" glyph-name="battery" d="M811.757 390.477h-81.877v-62.437h-517.131v301.78h517.131v-62.437h81.949zM685.148 585.087h-427.522v-212.388h427.522zM766.88 522.65h-37v-87.224h37.072z" />
<glyph unicode="&#xe942;" glyph-name="oszilloskop-aufzeichnung-import" d="M798.604 161.179h-572.631v494.223h193.165v-44.66h-148.505v-404.686h483.238v404.686h-148.867v44.66h193.527zM336.757 493.599l175.533-218.675 175.316 218.747-34.76 27.967-118.082-147.855v340.514h-44.732v-340.514l-118.587 147.783z" />
<glyph unicode="&#xe943;" glyph-name="oszilloskop-aufzeichnung-export" d="M798.677 161.179h-572.847v494.223h153.13v-44.66h-108.398v-404.686h483.238v404.686h-106.519v44.66h151.179zM489.959 560.589v-315.077h44.805v315.077l118.009-147.638 34.904 27.75-175.533 218.747-175.533-218.747 34.76-27.75z" />
<glyph unicode="&#xe944;" glyph-name="windows-ie-file-open:save" d="M218.892 708.155h209.57l54.199-81.299h323.171v-451.442h-586.939zM760.882 582.124h-302.069l-52.32 81.588h-142.941v-443.42h497.402z" />
<glyph unicode="&#xe945;" glyph-name="repeat" d="M677.849 572.224l-38.951 38.734-4.047 3.83c-11.344 10.964-24.13 20.551-38.018 28.42-15.133 8.757-31.553 15.609-48.895 20.191-17.073 4.582-35.074 7.035-53.648 7.035-50.066 0-95.97-17.821-131.715-47.465-18.367-15.154-33.98-33.531-45.973-54.263-17.524-29.962-27.571-64.83-27.571-102.044 0-1.226 0.011-2.449 0.033-3.669l-44.663 0.183c-0.028 1.349-0.044 2.94-0.044 4.535 0 21.52 2.918 42.358 8.379 62.141 5.993 21.877 14.709 42.436 25.785 61.452 14.536 25.143 33.444 47.505 55.671 66.018 43.346 36.214 99.13 58.040 160.010 58.133 0.031 0 0.042 0 0.054 0 22.631 0 44.547-3.060 65.357-8.788 21.179-5.787 41.213-14.282 59.729-25.093 18.232-10.544 34.982-23.383 49.854-38.114l40.016-40.016-19.078 171.413 44.010 4.625 28.906-260.878-260.878 28.906 4.697 43.359zM336.901 306.866l38.301-38.517 5.059-4.625c11.204-10.656 23.764-20.064 37.349-27.894 15.15-8.872 31.563-15.817 48.908-20.491 17.125-4.634 35.18-7.112 53.812-7.112 50.131 0 96.073 17.936 131.759 47.741 18.344 15.266 33.951 33.706 45.98 54.476 17.458 29.419 27.469 63.696 27.469 100.312 0 1.788-0.024 3.571-0.071 5.348l44.666-0.262c0.016-1.032 0.025-2.251 0.025-3.471 0-22.169-2.936-43.652-8.44-64.082-5.788-21.423-14.338-41.678-25.249-60.388-14.585-25.197-33.542-47.562-55.829-66.054-43.408-36.213-99.237-58.035-160.16-58.138-0.060 0-0.104 0-0.147 0-45.47 0-88.077 12.262-124.694 33.659-18.22 10.556-34.964 23.318-49.891 37.928l-39.99 39.991 18.861-171.341-43.865-4.625-28.328 260.878 260.661-28.328-4.697-43.937z" />
<glyph unicode="&#xe946;" glyph-name="oszilloskop-scrollen-right" d="M271.573 617.101l27.533 34.543 260.155-208.775-260.155-208.775-27.533 34.326 217.446 174.376zM465.1 617.101l27.533 34.543 260.155-208.775-260.155-208.775-27.533 34.326 217.519 174.521z" />
<glyph unicode="&#xe947;" glyph-name="play" d="M294.987 171.151v541.99l434.532-271.067zM339.647 632.566v-380.766l305.393 190.347z" />
<glyph unicode="&#xe948;" glyph-name="oszilloskop-scrollen-left" d="M557.238 268.348l-27.533-34.326-260.155 208.775 260.155 208.775 27.533-34.543-217.591-174.232zM755.028 268.348l-27.533-34.326-260.155 208.775 260.155 208.775 27.533-34.543-217.519-174.232z" />
<glyph unicode="&#xe949;" glyph-name="applikation-close" d="M788.993 153.952h-553.553v572.631h553.553zM280.1 198.612h464.233v483.311h-464.16zM603.849 565.142l-91.632-91.849-91.849 91.922-31.58-31.58 91.705-91.849-91.705-91.922 31.58-31.58 91.849 91.922 91.705-91.922 32.014 31.58-92.138 91.922 92.138 91.849z" />
<glyph unicode="&#xe94a;" glyph-name="applikation-check" d="M767.603 153.952h-553.553v572.631h553.553zM258.71 198.612h463.944v483.311h-463.871zM423.909 332.52l-72.265 115.625 37.939 23.703 45.744-72.843 187.24 149.083 27.822-34.976z" />
<glyph unicode="&#xe94b;" glyph-name="applikation-minimize" d="M788.993 153.952h-553.553v572.631h553.553zM280.1 198.612h464.233v483.311h-464.16zM638.898 462.742h-253.507v-44.732h253.651z" />
<glyph unicode="&#xe94c;" glyph-name="applikation-maximize" d="M788.993 153.952h-553.553v572.631h553.553zM280.1 198.612h464.233v483.311h-464.16zM664.263 462.742h-130.078v130.078h-44.154v-130.078h-130.078v-44.732h130.078v-130.078h44.732v130.078h130.078z" />
<glyph unicode="&#xe94d;" glyph-name="close-circle" d="M512.217 115.868c-0.655-0.005-1.429-0.008-2.203-0.008-59.359 0-114.911 16.303-162.422 44.675-48.039 28.252-88.156 68.369-116.377 116.328-28.394 48.355-44.674 104.683-44.674 164.813s16.28 116.458 44.673 164.816c28.222 47.956 68.34 88.073 116.298 116.295 48.321 28.389 104.612 44.667 164.705 44.667s116.385-16.278 164.705-44.666c47.959-28.223 88.076-68.341 116.297-116.299 28.394-48.355 44.674-104.683 44.674-164.813s-16.28-116.458-44.673-164.816c-28.222-47.956-68.34-88.073-116.298-116.295-47.591-28.402-103.142-44.705-162.502-44.705-0.775 0-1.549 0.003-2.322 0.008zM512.217 722.897c-0.568 0.004-1.241 0.007-1.914 0.007-51.242 0-99.19-14.102-140.175-38.636-41.473-24.453-76.095-59.144-100.436-100.6-24.541-41.729-38.613-90.343-38.613-142.244s14.072-100.515 38.61-142.235c24.379-41.373 58.994-75.988 100.363-100.363 41.712-24.582 90.329-38.681 142.238-38.681s100.525 14.099 142.228 38.676c41.377 24.383 75.991 58.997 100.369 100.365 24.534 41.725 38.602 90.339 38.602 142.238s-14.068 100.513-38.599 142.236c-24.391 41.449-59.060 76.119-100.506 100.507-41.035 24.519-88.94 38.594-140.133 38.594-0.715 0-1.43-0.003-2.144-0.008zM603.922 565.359l-91.705-92.066-91.922 91.922-31.58-31.58 91.705-91.849-91.705-91.922 31.58-31.58 91.922 91.922 91.705-91.922 32.014 31.58-92.138 91.922 92.138 91.849z" />
<glyph unicode="&#xe94e;" glyph-name="ok-circle" d="M512.217 115.868c-0.655-0.005-1.429-0.008-2.203-0.008-59.359 0-114.911 16.303-162.422 44.675-48.039 28.252-88.156 68.369-116.377 116.328-28.394 48.355-44.674 104.683-44.674 164.813s16.28 116.458 44.673 164.816c28.222 47.956 68.34 88.073 116.298 116.295 48.321 28.389 104.612 44.667 164.705 44.667s116.385-16.278 164.705-44.666c47.959-28.223 88.076-68.341 116.297-116.299 28.394-48.355 44.674-104.683 44.674-164.813s-16.28-116.458-44.673-164.816c-28.222-47.956-68.34-88.073-116.298-116.295-47.591-28.402-103.142-44.705-162.502-44.705-0.775 0-1.549 0.003-2.322 0.008zM512.217 722.897c-0.568 0.004-1.241 0.007-1.914 0.007-51.242 0-99.19-14.102-140.175-38.636-41.473-24.453-76.095-59.144-100.436-100.6-24.541-41.729-38.613-90.343-38.613-142.244s14.072-100.515 38.61-142.235c24.379-41.373 58.994-75.988 100.363-100.363 41.712-24.582 90.329-38.681 142.238-38.681s100.525 14.099 142.228 38.676c41.377 24.383 75.991 58.997 100.369 100.365 24.534 41.725 38.602 90.339 38.602 142.238s-14.068 100.513-38.599 142.236c-24.391 41.449-59.060 76.119-100.506 100.507-41.035 24.519-88.94 38.594-140.133 38.594-0.715 0-1.43-0.003-2.144-0.008zM442.987 332.665l-72.265 115.625 37.939 23.703 45.744-72.843 187.167 148.939 27.967-34.904z" />
<glyph unicode="&#xe94f;" glyph-name="minus-circle" d="M512.217 115.868c-0.655-0.005-1.429-0.008-2.203-0.008-59.359 0-114.911 16.303-162.422 44.675-48.039 28.252-88.156 68.369-116.377 116.328-28.394 48.355-44.674 104.683-44.674 164.813s16.28 116.458 44.673 164.816c28.222 47.956 68.34 88.073 116.298 116.295 48.321 28.389 104.612 44.667 164.705 44.667s116.385-16.278 164.705-44.666c47.959-28.223 88.076-68.341 116.297-116.299 28.394-48.355 44.674-104.683 44.674-164.813s-16.28-116.458-44.673-164.816c-28.222-47.956-68.34-88.073-116.298-116.295-47.591-28.402-103.142-44.705-162.502-44.705-0.775 0-1.549 0.003-2.322 0.008zM512.217 722.897c-0.568 0.004-1.241 0.007-1.914 0.007-51.242 0-99.19-14.102-140.175-38.636-41.473-24.453-76.095-59.144-100.436-100.6-24.541-41.729-38.613-90.343-38.613-142.244s14.072-100.515 38.61-142.235c24.379-41.373 58.994-75.988 100.363-100.363 41.712-24.582 90.329-38.681 142.238-38.681s100.525 14.099 142.228 38.676c41.377 24.383 75.991 58.997 100.369 100.365 24.534 41.725 38.602 90.339 38.602 142.238s-14.068 100.513-38.599 142.236c-24.391 41.449-59.060 76.119-100.506 100.507-41.035 24.519-88.94 38.594-140.133 38.594-0.715 0-1.43-0.003-2.144-0.008zM638.826 471.631h-253.507v-44.443h253.651z" />
<glyph unicode="&#xe950;" glyph-name="plus-circle" d="M512.217 115.868c-0.655-0.005-1.429-0.008-2.203-0.008-59.359 0-114.911 16.303-162.422 44.675-48.039 28.252-88.156 68.369-116.377 116.328-28.394 48.355-44.674 104.683-44.674 164.813s16.28 116.458 44.673 164.816c28.222 47.956 68.34 88.073 116.298 116.295 48.321 28.389 104.612 44.667 164.705 44.667s116.385-16.278 164.705-44.666c47.959-28.223 88.076-68.341 116.297-116.299 28.394-48.355 44.674-104.683 44.674-164.813s-16.28-116.458-44.673-164.816c-28.222-47.956-68.34-88.073-116.298-116.295-47.591-28.402-103.142-44.705-162.502-44.705-0.775 0-1.549 0.003-2.322 0.008zM512.217 722.897c-0.568 0.004-1.241 0.007-1.914 0.007-51.242 0-99.19-14.102-140.175-38.636-41.473-24.453-76.095-59.144-100.436-100.6-24.541-41.729-38.613-90.343-38.613-142.244s14.072-100.515 38.61-142.235c24.379-41.373 58.994-75.988 100.363-100.363 41.712-24.582 90.329-38.681 142.238-38.681s100.525 14.099 142.228 38.676c41.377 24.383 75.991 58.997 100.369 100.365 24.534 41.725 38.602 90.339 38.602 142.238s-14.068 100.513-38.599 142.236c-24.391 41.449-59.060 76.119-100.506 100.507-41.035 24.519-88.94 38.594-140.133 38.594-0.715 0-1.43-0.003-2.144-0.008zM663.974 464.332h-130.078v130.078h-43.937v-130.078h-130.078v-44.443h130.078v-130.078h44.66v130.078h130.078z" />
<glyph unicode="&#xe951;" glyph-name="oszilloskop-undo-zoom" d="M744.839 128.587l-139.544 173.437c-35.749-23.866-79.707-38.085-126.985-38.085-0.249 0-0.498 0-0.746 0.001-0.46-0.004-1.049-0.006-1.639-0.006-42.257 0-81.805 11.603-115.63 31.796-34.441 20.229-63.231 48.903-83.57 83.18-20.37 34.515-32.053 74.755-32.053 117.724s11.683 83.209 32.046 117.718c20.296 34.344 49.097 63.054 83.507 83.232 34.56 20.301 74.809 31.939 117.776 31.939s83.216-11.638 117.766-31.935c34.201-20.291 62.808-49.036 82.93-83.358 20.362-34.57 32.039-74.847 32.039-117.852 0-32.963-6.86-64.324-19.231-92.732-12.206-27.869-29.686-52.897-51.18-73.822l139.492-173.054zM314.788 402.401c16.844-28.563 40.017-51.736 67.695-68.096 27.911-16.426 60.433-25.844 95.155-25.844s67.243 9.418 95.15 25.839c27.711 16.328 50.893 39.51 67.218 67.217 16.411 27.902 25.822 60.411 25.822 95.118s-9.41 67.216-25.819 95.115c-16.33 27.707-39.512 50.889-67.216 67.217-27.911 16.424-60.433 25.843-95.154 25.843s-67.243-9.418-95.15-25.839c-27.681-16.368-50.853-39.54-67.216-67.217-16.455-27.892-25.891-60.403-25.891-95.118s9.437-67.227 25.885-95.109zM384.235 519.181h187.384v-44.805h-187.384z" />
<glyph unicode="&#xe952;" glyph-name="oszilloskop-zoom" d="M744.839 129.599l-139.544 173.437c-35.749-23.866-79.707-38.085-126.985-38.085-0.249 0-0.498 0-0.746 0.001-0.466-0.004-1.062-0.006-1.659-0.006-42.251 0-81.792 11.603-115.61 31.796-34.451 20.246-63.243 48.945-83.571 83.251-20.37 34.516-32.053 74.757-32.053 117.726s11.683 83.209 32.046 117.718c20.296 34.344 49.097 63.054 83.507 83.232 34.56 20.301 74.809 31.939 117.776 31.939s83.216-11.638 117.766-31.935c34.187-20.253 62.791-48.949 82.931-83.217 20.362-34.566 32.038-74.843 32.038-117.847 0-32.963-6.86-64.324-19.231-92.732-12.182-27.953-29.667-53.056-51.184-74.042l139.496-172.978zM314.788 403.557c16.844-28.563 40.017-51.736 67.695-68.096 27.911-16.426 60.433-25.844 95.155-25.844s67.243 9.418 95.15 25.839c27.739 16.319 50.946 39.503 67.29 67.218 16.411 27.901 25.821 60.41 25.821 95.117s-9.41 67.216-25.819 95.115c-16.33 27.707-39.512 50.889-67.216 67.217-27.911 16.424-60.433 25.843-95.154 25.843s-67.243-9.418-95.15-25.839c-27.681-16.368-50.853-39.54-67.216-67.217-16.455-27.892-25.891-60.403-25.891-95.118s9.437-67.227 25.885-95.109zM499.643 521.566h80.648v-44.66h-80.648v-91.488h-44.371v91.488h-81.009v44.66h81.009v91.56h44.66z" />
<glyph unicode="&#xe953;" glyph-name="search" d="M744.839 128.587l-139.544 173.437c-35.749-23.866-79.707-38.085-126.985-38.085-0.249 0-0.498 0-0.746 0.001-0.46-0.004-1.049-0.006-1.639-0.006-42.257 0-81.805 11.603-115.63 31.796-34.441 20.229-63.231 48.903-83.57 83.18-20.37 34.515-32.053 74.755-32.053 117.724s11.683 83.209 32.046 117.718c20.296 34.344 49.097 63.054 83.507 83.232 34.56 20.301 74.809 31.939 117.776 31.939s83.216-11.638 117.766-31.935c34.201-20.291 62.808-49.036 82.93-83.358 20.362-34.57 32.039-74.847 32.039-117.852 0-32.963-6.86-64.324-19.231-92.732-12.206-27.869-29.686-52.897-51.18-73.822l139.492-173.054zM314.788 402.401c16.844-28.563 40.017-51.736 67.695-68.096 27.911-16.426 60.433-25.844 95.155-25.844s67.243 9.418 95.15 25.839c27.711 16.328 50.893 39.51 67.218 67.217 16.411 27.902 25.822 60.411 25.822 95.118s-9.41 67.216-25.819 95.115c-16.33 27.707-39.512 50.889-67.216 67.217-27.911 16.424-60.433 25.843-95.154 25.843s-67.243-9.418-95.15-25.839c-27.681-16.368-50.853-39.54-67.216-67.217-16.455-27.892-25.891-60.403-25.891-95.118s9.437-67.227 25.885-95.109z" />
<glyph unicode="&#xe954;" glyph-name="news" d="M788.921 767.052v-650.388h-553.553v650.388zM744.333 722.319h-464.088v-561.14h464.088zM534.764 602.72h-179.146v44.877h179.146zM661.011 482.615h-305.393v44.66h305.393zM627.552 362.366h-271.935v44.66h271.935zM661.011 242.116h-305.393v44.66h305.393z" />
<glyph unicode="&#xe955;" glyph-name="settings" d="M822.669 507.402v-130.656h-61.209c-6.662-24.548-15.849-46.022-27.553-65.832l44.030-42.133-92.283-92.355-43.359 43.359c-18.594-11.277-40.095-20.485-62.893-26.499l-1.713-61.593h-130.656v61.209c-24.506 6.363-46.011 15.574-65.691 27.493l-42.273-43.97-92.355 92.355 43.359 43.359c-11.316 18.595-20.527 40.1-26.506 62.913l-61.802 1.692v130.656h61.426c6.359 24.506 15.57 46.010 27.492 65.689l-43.969 42.275 92.283 92.355 43.359-43.359c18.595 11.311 40.099 20.521 62.91 26.505l1.695 61.514h130.728v-61.209c24.51-6.398 46.011-15.606 65.707-27.5l42.258 43.976 92.355-92.355-43.359-43.359c11.031-18.583 20.218-40.057 26.449-62.753zM778.009 462.742h-53.982c-2.101 22.554-7.51 43.307-15.76 62.553-8.179 18.946-18.995 36.437-31.997 52.043l38.363 37.74-28.906 28.906-38.156-38.084c-15.399 12.663-33.030 23.455-52.057 31.617-19.326 8.296-40.088 13.772-61.825 15.936l-0.875 54.27h-41.408v-53.765c-22.591-2.257-43.325-7.731-62.583-15.989-19.026-8.122-36.616-18.919-52.313-31.92l-37.728 38.37-28.906-28.906 38.228-38.517c-12.717-15.341-23.514-32.931-31.63-51.94-8.265-19.276-13.74-40.011-15.921-61.717l-53.837-0.884v-41.264h53.765c2.277-22.518 7.75-43.175 15.989-62.364 8.119-19.029 18.916-36.619 31.92-52.315l-38.369-37.729 28.906-28.906 38.084 38.084c15.341-12.717 32.931-23.514 51.94-31.63 19.221-8.319 39.895-13.864 61.545-16.132l0.912-53.843h41.047v53.765c22.61 2.225 43.373 7.702 62.644 15.986 19.084 8.18 36.715 18.972 52.492 31.939l37.778-38.386 28.906 28.906-38.084 38.084c12.893 15.399 23.832 33.060 32.061 52.163 8.269 19.287 13.678 40.040 15.717 61.772l54.045 0.822zM561.574 356.946c15.099 8.808 27.325 21.034 35.881 35.667 8.568 14.6 13.48 31.602 13.48 49.751s-4.912 35.151-13.479 49.748c-8.565 14.63-20.789 26.853-35.416 35.418-14.598 8.575-31.6 13.491-49.751 13.491s-35.152-4.917-49.747-13.49c-14.626-8.571-26.849-20.793-35.418-35.416-8.575-14.599-13.492-31.601-13.492-49.751s4.917-35.152 13.49-49.747c8.563-14.633 20.787-26.857 35.416-35.419 14.6-8.568 31.602-13.48 49.751-13.48s35.151 4.912 49.748 13.479zM539.172 488.541c8.149-4.79 14.749-11.413 19.375-19.33 4.659-7.967 7.329-17.24 7.329-27.136s-2.67-19.169-7.33-27.137c-4.622-7.918-11.223-14.542-19.124-19.193-7.95-4.666-17.211-7.341-27.097-7.341s-19.147 2.675-27.099 7.342c-15.889 9.307-26.558 26.558-26.558 46.3 0 0.061 0 0.122 0 0.183 0 0.067-0.001 0.157-0.001 0.248 0 9.79 2.685 18.954 7.36 26.793 4.635 7.948 11.263 14.576 19.199 19.208 7.952 4.665 17.213 7.341 27.099 7.341s19.147-2.675 27.099-7.342z" />
<glyph unicode="&#xe956;" glyph-name="print" d="M802.94 519.687v-233.345h-581.447v233.345h122.851v165.704h335.6v-166.21zM758.28 475.027h-492.127v-143.736h492.127zM349.981 235.757h324.471v-44.66h-324.471zM389.149 519.759h246.136v121.261h-246.136z" />
<glyph unicode="&#xe957;" glyph-name="video" d="M135.425 706.276h559.912v-92.572l193.527 120.683v-394.497l-193.527 120.9v-92.716h-201.837v-204.8h-167.294v204.8h-190.781zM371.083 412.951v-205.017h77.758v205.017h201.548v248.593h-470.303v-248.593zM844.132 653.956l-148.794-93.006v-47.406l148.867-92.933z" />
<glyph unicode="&#xe958;" glyph-name="screenshot" d="M352.294 626.857l54.199 81.299h211.521l54.054-81.299h160.501v-451.442h-640.849v451.442zM788.126 582.197h-139.617l-53.115 81.515h-165.199l-54.416-81.588h-139.328v-362.122h551.601zM461.559 534.935c14.898 6.645 32.277 10.547 50.558 10.623 0.577 0.008 1.225 0.013 1.874 0.013 74.314 0 134.558-60.244 134.558-134.558s-60.244-134.558-134.558-134.558c-74.314 0-134.558 60.244-134.558 134.558 0 55.378 33.453 102.942 81.254 123.587zM573.136 475.822c-15.076 15.567-36.168 25.23-59.518 25.23-0.442 0-0.883-0.003-1.324-0.010-0.144 0.003-0.393 0.004-0.642 0.004-15.729 0-30.449-4.325-43.033-11.85-12.694-7.5-23.295-18.125-30.759-30.817-7.483-12.772-11.771-27.642-11.771-43.513s4.289-30.741 11.771-43.513c7.427-12.697 18.039-23.309 30.738-30.738 12.842-7.523 27.799-11.837 43.764-11.837s30.921 4.314 43.768 11.84c12.693 7.429 23.304 18.040 30.735 30.737 7.488 12.584 11.785 27.267 11.785 42.953 0 0.285-0.001 0.57-0.004 0.854 0.003 0.191 0.004 0.468 0.004 0.746 0 23.526-9.776 44.769-25.487 59.888z" />
<glyph unicode="&#xe959;" glyph-name="date-time-settings" d="M512.217 115.868c-0.655-0.005-1.429-0.008-2.203-0.008-59.359 0-114.911 16.303-162.422 44.675-48.039 28.252-88.156 68.369-116.377 116.328-28.394 48.355-44.674 104.683-44.674 164.813s16.28 116.458 44.673 164.816c28.222 47.956 68.34 88.073 116.298 116.295 48.321 28.389 104.612 44.667 164.705 44.667s116.385-16.278 164.705-44.666c47.959-28.223 88.076-68.341 116.297-116.299 28.394-48.355 44.674-104.683 44.674-164.813s-16.28-116.458-44.673-164.816c-28.222-47.956-68.34-88.073-116.298-116.295-47.591-28.402-103.142-44.705-162.502-44.705-0.775 0-1.549 0.003-2.322 0.008zM512.217 722.897c-0.568 0.004-1.241 0.007-1.914 0.007-51.242 0-99.19-14.102-140.175-38.636-41.473-24.453-76.095-59.144-100.436-100.6-24.541-41.729-38.613-90.343-38.613-142.244s14.072-100.515 38.61-142.235c24.379-41.373 58.994-75.988 100.363-100.363 41.712-24.582 90.329-38.681 142.238-38.681s100.525 14.099 142.228 38.676c41.377 24.383 75.991 58.997 100.369 100.365 24.534 41.725 38.602 90.339 38.602 142.238s-14.068 100.513-38.599 142.236c-24.391 41.449-59.060 76.119-100.506 100.507-41.035 24.519-88.94 38.594-140.133 38.594-0.715 0-1.43-0.003-2.144-0.008zM608.547 309.178l-123.212 102.906v220.482h44.66v-199.452l107.17-89.609z" />
<glyph unicode="&#xe95a;" glyph-name="unlocked" d="M726.773 468.018v-325.7h-428.823v325.7h55.066v133.835c0 0.133-0.001 0.29-0.001 0.447 0 29.165 8.059 56.449 22.070 79.744 13.812 23.376 33.346 42.91 56.676 56.705 23.635 13.929 51.184 21.917 80.599 21.917s56.964-7.988 80.596-21.914c23.353-13.771 42.893-33.312 56.663-56.662 14.029-23.4 22.086-50.743 22.086-79.968 0-0.095 0-0.189 0-0.284v-9.958h-44.732v9.973c0.002 0.243 0.003 0.531 0.003 0.818 0 20.863-5.749 40.384-15.748 57.065-9.96 16.862-24.050 30.952-40.879 40.898-17.008 10.013-36.828 15.755-57.989 15.755s-40.981-5.742-57.987-15.753c-16.889-9.932-31.028-24.025-41.012-40.87-10.101-16.761-15.905-36.361-15.905-57.317 0-0.21 0.001-0.42 0.002-0.629v-133.803zM682.113 423.358h-339.647v-236.597h339.647z" />
<glyph unicode="&#xe95b;" glyph-name="locked" d="M726.556 485.795v-325.7h-428.823v325.7h55.066v70.314c0 0.133-0.001 0.29-0.001 0.447 0 29.165 8.059 56.449 22.070 79.744 13.812 23.376 33.346 42.91 56.676 56.705 23.635 13.929 51.184 21.917 80.599 21.917s56.964-7.988 80.596-21.914c23.354-13.768 42.896-33.31 56.663-56.662 14.029-23.4 22.086-50.743 22.086-79.968 0-0.095 0-0.189 0-0.284v-70.3zM681.896 440.918h-339.647v-236.091h339.647zM397.459 485.795h229.37v70.314c0.002 0.249 0.003 0.543 0.003 0.838 0 20.857-5.749 40.371-15.748 57.045-9.96 16.863-24.050 30.953-40.879 40.899-16.827 10.191-36.52 16.049-57.58 16.049-0.144 0-0.287 0-0.431-0.001-0.328 0.004-0.742 0.006-1.156 0.006-20.871 0-40.412-5.693-57.154-15.612-16.934-9.898-31.083-24.001-41.030-40.877-10.013-16.751-15.762-36.313-15.762-57.218 0-0.397 0.002-0.793 0.006-1.189z" />
<glyph unicode="&#xe95c;" glyph-name="link-copy" d="M475.578 119.482l-207.112 130.873 191.431 303.514 123.501-78.047-23.92-37.939-85.562 53.838-143.591-227.419 131.523-83.033 66.701 106.086 37.939-23.92zM590.191 301.157l-123.501 77.902 23.92 37.939 85.562-54.199 149.083 236.308-131.523 83.033-72.265-114.757-37.795 24.064 96.113 152.48 207.112-130.8z" />
<glyph unicode="&#xe95d;" glyph-name="template" d="M783.429 678.165v-472.615h-541.99v472.615zM738.769 571.863v61.57h-452.959v-61.642zM285.809 250.137h130.078v276.993h-130.078zM738.769 527.131h-278.077v-276.993h278.077z" />
<glyph unicode="&#xe95e;" glyph-name="OI-signet" d="M288.339 585.665c22.402 38.301 52.031 69.375 85.996 92.5l-75.879 29.629c-27.461-24.57-52.031-53.476-71.543-87.441-84.55-146.699-51.308-329.53 70.82-437.928l75.879 29.629c-119.96 81.66-159.706 244.98-85.273 373.612zM672.068 688.282c83.828-48.418 133.691-133.691 139.472-224.023l63.594 50.586c-19.512 94.668-78.047 181.386-168.378 233.417s-194.394 59.258-286.171 28.906l-12.285-80.215c80.937 39.746 179.218 39.746 263.769-8.672zM811.54 425.959c-2.891-41.191-15.176-82.382-36.855-120.683-74.433-128.632-234.862-176.327-366.385-112.011l12.285-80.937c154.648-52.031 330.253 10.117 414.803 157.538 19.512 33.965 32.519 69.375 39.746 105.507l-63.594 50.586z" />
<glyph unicode="&#xe95f;" glyph-name="kuka-ag" d="M84.55 367.424h-52.031v164.765h52.031v-164.765zM254.374 367.424l-101.171 83.105 101.171 80.937h-74.433l-95.39-80.215 95.39-83.828h74.433zM492.85 425.236v106.953h-52.754v-97.558c0-20.957-7.949-26.738-29.629-26.738h-52.031c-21.68 0-29.629 6.504-29.629 26.738v97.558h-52.754v-106.953c0-40.469 21.68-59.98 70.097-59.98h75.156c49.14-0.723 71.543 18.789 71.543 59.98zM586.072 367.424h-52.031v164.765h52.031v-164.765zM755.896 367.424l-101.171 83.105 101.171 80.937h-74.433l-95.39-80.215 95.39-83.828h74.433zM904.762 532.189h-46.25l-102.617-164.765h59.98l17.344 28.183h96.836l17.344-28.183h59.98l-102.617 164.765zM851.286 428.85l30.351 52.031 30.351-52.031h-60.703z" />
<glyph unicode="&#xe960;" glyph-name="case-database" d="M200.898 773.555v-650.388h621.482v650.388c0 0-621.482 0-621.482 0zM776.13 167.249h-528.26v489.236h528.26c0 0 0-489.236 0-489.236zM394.569 581.33h323.026v-44.805h-323.026v44.805zM394.569 433.186h323.026v-44.805h-323.026v44.805zM394.569 284.319h323.026v-44.805h-323.026v44.805zM307.128 581.33h44.805v-44.805h-44.805v44.805zM307.128 433.186h44.805v-44.805h-44.805v44.805zM307.128 285.042h44.805v-44.805h-44.805v44.805z" />
<glyph unicode="&#xe961;" glyph-name="cause" d="M201.62 772.833v-650.388h621.482v650.388c0 0.723-621.482 0.723-621.482 0zM776.13 167.249h-527.537v560.779h528.26l-0.723-560.779zM395.291 639.142h323.026v-44.805h-323.026v44.805zM395.291 469.318h323.026v-44.805h-323.026v44.805zM394.569 298.772h323.026v-44.805h-323.026v44.805zM307.128 639.142h44.805v-44.805h-44.805v44.805zM307.128 470.041h44.805v-44.805h-44.805v44.805zM307.128 298.772h44.805v-44.805h-44.805v44.805z" />
<glyph unicode="&#xe962;" glyph-name="compatibility-overview" d="M846.95 488.83h-41.191v101.171h-93.945v41.914c0 48.418-39.023 88.164-88.164 88.164-48.418 0-88.164-39.023-88.164-88.164v-41.914h-414.080v-379.393h685.798l-1.445 101.894h41.914c48.418 0 88.164 39.746 88.164 88.164s-39.746 88.164-88.886 88.164zM442.264 355.862v-101.894h-276.054v289.784h276.054v-101.171h85.273c23.848 0 43.359-19.512 43.359-43.359s-19.512-43.359-43.359-43.359h-85.273zM847.673 355.862h-85.996v-101.171l-275.331-0.723v57.812h41.191c48.418 0 88.164 39.746 88.164 88.164s-39.023 88.886-88.164 88.886h-41.191v55.644h93.222v85.273c0 24.57 20.234 44.082 44.082 44.082 24.57 0 44.082-20.234 44.082-44.082v-85.996h93.945v-101.171h85.996c23.848 0 43.359-19.512 43.359-43.359s-18.789-43.359-43.359-43.359z" />
<glyph unicode="&#xe963;" glyph-name="component" d="M719.040 495.334h-41.191v130.078h-122.851v41.914c0 48.418-39.023 88.164-88.164 88.164-48.418 0-88.164-39.023-88.164-88.164v-41.914h-122.128v-176.327h85.273c23.848 0 43.359-19.512 43.359-43.359s-19.512-43.359-43.359-43.359h-85.273v-174.159h422.752l-1.445 130.8h41.914c48.418 0 88.164 39.746 88.164 88.164s-39.746 88.164-88.886 88.164zM720.486 362.366h-85.996v-130.078l-333.143-0.723v86.718h41.191c48.418 0 88.164 39.746 88.164 88.164s-39.023 88.886-88.164 88.886h-41.191v84.55h122.128v85.273c0 24.57 20.234 44.082 44.082 44.082 24.57 0 44.082-20.234 44.082-44.082v-85.996h122.851v-130.078h85.996c23.848 0 43.359-19.512 43.359-43.359 0-24.57-19.512-43.359-43.359-43.359z" />
<glyph unicode="&#xe964;" glyph-name="controller" d="M224.745 779.337v-687.243h44.805v59.258h412.635v-59.258h44.805v687.243h-502.244zM401.073 497.502h72.988v44.805h-72.988v192.948h281.112v-414.803h-281.112v177.050zM269.55 195.433v539.822h86.718v-459.608h325.917v-80.215h-412.635z" />
<glyph unicode="&#xe965;" glyph-name="cs-summary" d="M333.866 412.229h180.663v-44.805h-180.663v44.805zM336.034 532.912h179.218v-44.805h-179.218v44.805zM336.034 652.872h179.218v-44.805h-179.218v44.805zM734.939 252.522l-39.746-28.906-36.133-26.016-7.227 9.394-16.621 20.234-37.578-23.848 24.57-34.687 26.016-37.578 11.562 8.672 41.191 31.074 33.965 25.293 38.301 28.906-28.183 34.687zM779.020 344.299v264.491l-165.488 165.488h-388.065v-650.388h299.901c27.461-61.426 88.886-104.062 160.429-104.062 96.836 0 175.605 78.769 175.605 175.605 0 62.871-33.242 117.793-82.382 148.867zM612.81 719.356l112.011-112.011h-112.011v112.011zM512.361 168.694h-242.089v560.779h304.96v-159.706h159.706c0 0 0-102.617 0-205.234-15.898 4.336-31.797 7.227-49.14 7.227-96.836 0-175.605-78.769-175.605-175.605 0-9.394 0.723-18.789 2.168-27.461zM685.798 66.8c-44.805 0-83.828 22.402-106.953 57.090-8.672 13.73-15.176 28.183-18.789 44.805-2.168 8.672-2.891 18.066-2.891 26.738 0 71.543 57.812 129.355 129.355 129.355 17.344 0 33.965-3.613 49.14-10.117 16.621-7.227 31.797-17.344 44.082-30.351 22.402-23.125 35.41-54.199 35.41-88.886-0.723-70.82-57.812-128.632-129.355-128.632z" />
<glyph unicode="&#xe966;" glyph-name="favorite" d="M296.288 125.335l87.441 267.382-228.359 164.765 281.835-0.723 86.718 267.382 86.718-267.382 281.835 0.723-228.359-164.765 87.441-267.382-227.636 166.21-227.636-166.21zM523.924 344.299l144.531-105.507-55.644 169.824 145.253 104.785-179.218-0.723-54.922 169.824-54.922-169.824-179.218 0.723 145.253-104.785-55.644-169.824 144.531 105.507z" />
<glyph unicode="&#xe967;" glyph-name="favorite-template" d="M860.68 691.896c-15.176 26.016-36.855 47.695-62.871 62.871-53.476 31.074-119.96 31.074-173.437 0-26.016-15.176-47.695-36.855-62.871-62.871-2.891-4.336-5.059-8.672-7.227-13.73h-312.909v-472.615h541.99v242.089c5.059 2.168 10.117 4.336 14.453 7.227v0c26.016 15.176 47.695 36.855 62.871 62.871 31.074 54.199 31.074 120.683 0 174.159zM285.448 633.361h254.374c-3.613-20.234-2.891-41.191 0.723-61.426h-255.097v61.426zM415.526 250.354h-130.078v276.776h130.078v-276.776zM738.552 250.354h-277.499v276.776h95.39c1.445-2.891 2.891-5.781 4.336-8.672 15.176-26.016 36.855-47.695 62.871-62.871 35.41-20.234 75.879-27.461 114.179-20.957v-184.277zM822.38 540.861c-9.394-16.621-23.125-31.074-39.023-41.914-2.891-1.445-5.059-3.613-7.949-5.059v0c-11.562-6.504-23.848-11.562-36.855-14.453-31.074-6.504-63.594-2.168-91.777 14.453-14.453 8.672-27.461 19.512-37.578 33.242-3.613 4.336-6.504 8.672-9.394 13.73-5.781 10.117-10.117 20.234-13.008 31.074-5.059 20.234-5.781 41.191-1.445 61.426 2.891 12.285 7.227 24.57 13.73 36.133 1.445 2.891 3.613 5.781 5.781 8.672 10.84 15.176 24.57 28.183 41.191 38.301 39.746 23.125 88.886 23.125 128.632 0 19.512-11.562 35.41-27.461 46.972-46.972 23.848-39.746 23.848-88.886 0.723-128.632zM711.091 684.669l-18.066-55.644h-58.535l47.695-33.965-18.066-54.922 46.972 33.965 46.972-33.965-18.066 54.922 46.972 33.965h-57.812z" />
<glyph unicode="&#xe968;" glyph-name="guidance" d="M739.997 623.966h-183.554v101.894h-45.527v-27.461h-261.601l-115.625-98.281 115.625-98.281h263.046v-366.385h45.527v291.229h183.554l114.902 99.004-116.347 98.281zM511.639 545.197h-247.87l-65.039 54.922 65.039 54.922h248.593l-0.723-109.843zM726.267 470.041h-169.101v109.843h169.101l65.039-54.922-65.039-54.922z" />
<glyph unicode="&#xe969;" glyph-name="informationtype" d="M417.694 515.568c-26.016-15.176-48.418-36.855-63.594-63.594-31.074-54.199-31.074-120.683 0-174.882 15.176-26.016 36.855-48.418 63.594-63.594 26.738-15.898 56.367-23.848 87.441-23.125 30.351 0 60.703 7.949 87.441 23.125 26.016 15.176 48.418 36.855 63.594 63.594 31.074 54.199 31.074 120.683 0 174.882-15.176 26.016-36.855 48.418-63.594 63.594-54.199 31.074-120.683 31.074-174.882 0zM616.423 428.85c23.125-39.746 23.125-88.886 0-128.632-11.562-19.512-27.461-35.41-46.972-46.972-39.746-23.125-88.886-23.125-128.632 0-19.512 11.562-35.41 27.461-46.972 46.972-23.125 39.746-23.125 88.886 0 128.632 11.562 19.512 27.461 35.41 46.972 46.972s41.914 17.344 64.316 17.344c22.402 0 44.805-5.781 64.316-17.344s35.41-27.461 46.972-46.972zM484.9 455.588c-4.336-5.781-7.227-13.008-6.504-20.234-0.723-7.227 1.445-14.453 6.504-20.234 5.781-4.336 12.285-6.504 19.512-5.781 7.227-0.723 13.73 1.445 19.512 5.781 5.059 5.781 7.227 13.008 6.504 20.234 0 17.344-8.672 26.016-26.016 26.016-7.227 0.723-14.453-1.445-19.512-5.781zM482.010 391.272h44.805v-123.574h-44.805v123.574zM615.701 767.052h-388.065v-650.388h553.553v484.9l-165.488 165.488zM614.978 712.13l112.011-112.011h-112.011v112.011zM737.107 161.468h-464.666v560.779h304.96v-159.706h159.706v-401.073z" />
<glyph unicode="&#xe96a;" glyph-name="kinematic" d="M396.014 627.579v0c0 0 0 0 0 0v0zM786.247 735.255l18.789 40.469-103.339 46.972c-13.73 43.359-53.476 74.433-100.449 74.433-54.922 0-100.449-42.637-104.785-96.836l-117.793-130.078c-52.031-5.781-93.222-50.586-93.222-104.062 0-57.812 46.972-104.785 104.785-104.785 10.84 0 20.957 1.445 30.351 4.336l112.011-54.922-91.777-63.594c-15.176 6.504-31.797 10.117-49.14 10.117-67.929 0-122.851-54.922-122.851-122.851 0-0.723 0-2.168 0-2.891h-52.031v-218.241h466.834v218.241h-148.144l107.675 75.156c2.168 0 4.336 0 5.781 0 57.812 0 104.785 46.972 104.785 104.785 0 55.644-44.082 101.894-99.004 104.785l-148.144 72.988 88.164 97.558c2.168 0 4.336 0 6.504 0 20.234 0 39.023 5.781 54.922 15.176l95.39-43.359 16.621 36.133 37.578-16.621 18.789 40.469-38.301 16.621zM423.475 513.4c-9.394-5.781-20.957-9.394-32.519-9.394-16.621 0-32.519 6.504-43.359 18.066-11.562 10.84-18.066 26.738-18.066 44.082 0 33.965 27.461 61.426 61.426 61.426 1.445 0 3.613 0 5.059 0v0 0c27.461-2.168 49.863-23.125 54.922-49.863 0.723-2.891 0.723-5.781 0.723-8.672 0-0.723 0-1.445 0-2.891 1.445-22.402-10.84-41.914-28.183-52.754zM390.956 314.67c6.504 0 13.008-0.723 19.512-2.168 34.687-8.672 59.98-39.746 59.98-76.601 0-0.723 0-2.168 0-2.891 0-2.168 0-4.336-0.723-6.504-1.445-13.73-6.504-26.016-14.453-36.855-14.453-20.234-37.578-33.242-64.316-33.242s-49.863 13.008-64.316 33.242c-8.672 12.285-14.453 27.461-14.453 43.359 0 0.723 0 2.168 0 2.891-0.723 43.359 34.687 78.769 78.769 78.769zM640.271 189.651v-131.523h-380.116v131.523h16.621c18.066-44.805 62.148-76.601 113.457-76.601s95.39 31.797 113.457 76.601h136.582zM509.471 266.975c-5.781 20.957-16.621 39.023-31.074 54.199l73.711 50.586c7.949-19.512 21.68-36.855 39.746-48.418l-82.382-56.367zM625.818 468.596c3.613 1.445 7.227 2.891 10.84 3.613 4.336 0.723 7.949 1.445 12.285 1.445 7.949 0 15.898-1.445 23.125-4.336 22.402-9.394 38.301-31.074 38.301-57.090 0-12.285-3.613-23.848-9.394-33.242-10.84-17.344-30.351-28.906-52.031-28.906-5.781 0-11.562 0.723-16.621 2.168-15.176 4.336-27.461 13.73-35.41 26.738-3.613 5.781-6.504 11.562-7.949 18.789-0.723 4.336-1.445 9.394-1.445 13.73 0 6.504 0.723 12.285 2.891 18.066 5.781 18.066 18.789 31.797 35.41 39.023zM591.131 498.947c-18.066-12.285-31.797-28.906-39.746-49.863l-85.273 42.637c14.453 14.453 24.57 33.965 28.183 54.922l96.836-47.695zM479.119 623.243c-11.562 17.344-28.183 31.797-47.695 39.746l75.879 83.105c9.394-19.512 23.848-35.41 42.637-45.527l-70.82-77.324zM656.892 765.606c-7.227-15.176-20.234-26.738-36.133-32.519-6.504-2.168-13.008-3.613-19.512-3.613-7.949 0-15.176 1.445-22.402 4.336-20.957 7.949-36.133 26.738-39.023 49.14 0 2.891-0.723 5.059-0.723 7.949 0 22.402 12.285 41.914 30.351 52.754 9.394 5.781 20.234 8.672 31.797 8.672 26.016 0 47.695-15.898 57.090-38.301 2.891-7.227 5.059-15.176 5.059-23.848-0.723-7.949-2.891-16.621-6.504-24.57zM733.493 697.677l-53.476 24.57c15.898 18.066 26.016 41.914 26.016 67.929l57.090-26.016-29.629-66.484z" />
<glyph unicode="&#xe96b;" glyph-name="mail-open" d="M661.228 550.255v116.347h-299.179v-117.070l-43.359-32.519v-268.827h385.897v269.55l-43.359 32.519zM398.182 454.865v175.605h226.913v-175.605l-113.457-79.492-113.457 79.492zM669.177 285.042h-314.354v156.093l156.816-111.289 156.816 111.289v-156.093zM580.291 601.564h-135.859v-15.898h135.859zM444.432 571.212h135.859v-15.898h-135.859v15.898z" />
<glyph unicode="&#xe96c;" glyph-name="more" d="M567.283 278.538c0-30.732-24.913-55.644-55.644-55.644s-55.644 24.913-55.644 55.644c0 30.732 24.913 55.644 55.644 55.644s55.644-24.913 55.644-55.644zM567.283 454.865c0-30.732-24.913-55.644-55.644-55.644s-55.644 24.913-55.644 55.644c0 30.732 24.913 55.644 55.644 55.644s55.644-24.913 55.644-55.644zM567.283 631.915c0-30.732-24.913-55.644-55.644-55.644s-55.644 24.913-55.644 55.644c0 30.732 24.913 55.644 55.644 55.644s55.644-24.913 55.644-55.644z" />
<glyph unicode="&#xe96d;" glyph-name="more-facet" d="M690.134 767.052v36.133h-44.805v-36.133h-107.675v36.133h-44.805v-36.133h-106.953v36.133h-44.805v-36.133h-98.281v-650.388h553.553v650.388h-106.23zM751.56 161.468h-463.944v560.779h53.476v-35.41h44.805v35.41h106.953v-35.41h44.805v35.41h106.953v-35.41h44.805v35.41h61.426v-560.779zM362.772 647.814h305.682v-44.805h-305.682v44.805zM362.772 527.131h305.682v-44.805h-305.682v44.805zM362.772 407.17h305.682v-44.805h-305.682v44.805zM362.772 286.487h305.682v-44.805h-305.682v44.805z" />
</font>
</defs>
</svg>
