<?xml version="1.0" encoding="utf-8"?>
<!-- Generator: Adobe Illustrator 21.0.2, SVG Export Plug-In . SVG Version: 6.00 Build 0)  -->
<svg version="1.1" id="Layer_1" xmlns="http://www.w3.org/2000/svg" xmlns:xlink="http://www.w3.org/1999/xlink" x="0px" y="0px"
	 viewBox="0 0 199.6 25.2" style="enable-background:new 0 0 199.6 25.2;" xml:space="preserve">
<style type="text/css">
	.st0{fill:url(#SVGID_1_);}
	.st1{fill:none;stroke:#FFFFFF;stroke-width:0.54;stroke-miterlimit:10;}
	.st2{fill:#FFFFFF;}
</style>
<title>Asset 7</title>
<g id="Layer_2">
	<g id="Layer_1-2">
		
			<linearGradient id="SVGID_1_" gradientUnits="userSpaceOnUse" x1="0" y1="15.395" x2="199.56" y2="15.395" gradientTransform="matrix(1 0 0 -1 0 28)">
			<stop  offset="0" style="stop-color:#FF6F2F"/>
			<stop  offset="1" style="stop-color:#FF5500"/>
		</linearGradient>
		<path class="st0" d="M1.6,0H198c0.9,0,1.6,0.7,1.6,1.6v22c0,0.9-0.7,1.6-1.6,1.6H1.6c-0.9,0-1.6-0.7-1.6-1.6v-22
			C0,0.7,0.7,0,1.6,0z"/>
		<path id="Oval-1-Copy-2" class="st1" d="M179.8,19.8c4,0,7.2-3.2,7.2-7.2s-3.2-7.2-7.2-7.2c-4,0-7.2,3.2-7.2,7.2c0,0,0,0,0,0
			C172.6,16.6,175.8,19.8,179.8,19.8z"/>
		<path id="Shape-Copy-27" class="st2" d="M181.9,13.1l-1.8,1.8c-0.1,0.1-0.1,0.3,0,0.5c0.1,0.1,0.3,0.1,0.5,0c0,0,0,0,0,0l2.3-2.3
			c0.1-0.1,0.1-0.3,0-0.5l-2.3-2.4c-0.1-0.1-0.3-0.1-0.5,0c0,0,0,0,0,0c-0.1,0.1-0.1,0.3,0,0.5l1.8,1.8h-5.2c-0.2,0-0.3,0.2-0.3,0.3
			s0.2,0.3,0.3,0.3L181.9,13.1z"/>
	</g>
</g>
<g>
	<path class="st2" d="M11.7,8.2h0.7v4h4.5v-4h0.7v9h-0.7v-4.4h-4.5v4.4h-0.7V8.2z"/>
	<path class="st2" d="M20.4,8.5c0-0.4,0.2-0.5,0.5-0.5s0.5,0.1,0.5,0.5c0,0.4-0.2,0.5-0.5,0.5S20.4,8.9,20.4,8.5z M20.5,10.6h0.7
		v6.7h-0.7V10.6z"/>
	<path class="st2" d="M26.1,10.5c1.5,0,2.1,1.1,2.1,2.5c0,0.2,0,0.7,0,0.9h-4.1c0,2,0.6,2.9,2.2,2.9c0.8,0,1.3-0.4,1.7-0.8l0.4,0.4
		c-0.5,0.6-1.1,1-2.2,1c-2.2,0-2.8-1.5-2.8-3.5C23.3,12,24.2,10.5,26.1,10.5z M27.5,13.3v-0.4c0-1.2-0.4-1.9-1.5-1.9
		c-1.2,0-1.8,0.8-1.9,2.2H27.5z"/>
	<path class="st2" d="M30.4,10.6h0.6l0,1.3c0.4-0.9,1.1-1.4,1.8-1.4c0.3,0,0.4,0,0.6,0.1l-0.1,0.7c-0.2,0-0.4-0.1-0.7-0.1
		c-0.7,0-1.3,0.5-1.6,1.6v4.5h-0.7V10.6z"/>
	<path class="st2" d="M40.6,10.5c1.5,0,2.1,1.1,2.1,2.5c0,0.2,0,0.7,0,0.9h-4.1c0,2,0.6,2.9,2.2,2.9c0.8,0,1.3-0.4,1.7-0.8l0.4,0.4
		c-0.5,0.6-1.1,1-2.2,1c-2.2,0-2.8-1.5-2.8-3.5C37.8,12,38.7,10.5,40.6,10.5z M42,13.3v-0.4c0-1.2-0.4-1.9-1.5-1.9
		c-1.2,0-1.8,0.8-1.9,2.2H42z"/>
	<path class="st2" d="M44.9,10.6h0.6l0,1.3c0.4-0.9,1-1.3,1.9-1.3c1.5,0,2.1,0.7,2.1,2.3v4.5H49V13c0-1.3-0.3-1.9-1.5-1.9
		c-0.9,0-1.6,0.8-1.8,1.7v4.5h-0.7V10.6z"/>
	<path class="st2" d="M52.3,7.5l0.7,0v9.8h-0.7V7.5z"/>
	<path class="st2" d="M57.9,10.5c1.5,0,2.7,0.8,2.7,3.5c0,2.7-1.4,3.5-2.7,3.5c-1.5,0-2.7-0.8-2.7-3.5
		C55.1,11.3,56.5,10.5,57.9,10.5z M59.9,13.9c0-2-0.7-2.9-2-2.9c-1.3,0-2,0.8-2,2.9c0,2,0.7,2.9,2,2.9C59.2,16.8,59.9,16,59.9,13.9z
		"/>
	<path class="st2" d="M63.4,16.8c-0.4-0.2-0.5-0.5-0.5-0.8c0-0.4,0.3-0.7,0.8-0.9c-1.1-0.3-1.5-1.1-1.5-2.3c0-1.5,0.8-2.4,2.3-2.4
		c0.7,0,0.9,0.1,1.2,0.1h1.9v0.6h-1.3c0.2,0.3,0.3,1.1,0.3,1.7c0,1.6-0.9,2.4-2.2,2.4c-0.4,0.1-0.9,0.2-0.9,0.6
		c0,0.5,0.3,0.7,1.1,0.7h1.1c1.4,0,1.9,0.5,1.9,1.4c0,1.4-1.4,1.9-3.2,1.9c-1.6,0-2.6-0.4-2.6-1.7C61.9,17.4,62.7,17,63.4,16.8z
		 M64.6,19.3c1.1,0,2.3-0.3,2.3-1.2c0-0.7-0.4-0.9-1.2-0.9H64c-0.8,0.1-1.5,0.3-1.5,1.1C62.5,19.1,63.2,19.3,64.6,19.3z M66.1,12.9
		c0-0.8-0.2-1.4-0.4-1.7C65.5,11.1,65,11,64.5,11c-1.1,0-1.5,0.5-1.5,1.8c0,1.3,0.5,1.8,1.5,1.8C65.6,14.7,66.1,14.2,66.1,12.9z"/>
	<path class="st2" d="M70.3,16.8c-0.4-0.2-0.5-0.5-0.5-0.8c0-0.4,0.3-0.7,0.8-0.9c-1.1-0.3-1.5-1.1-1.5-2.3c0-1.5,0.8-2.4,2.3-2.4
		c0.7,0,0.9,0.1,1.2,0.1h1.9v0.6h-1.3c0.2,0.3,0.3,1.1,0.3,1.7c0,1.6-0.9,2.4-2.2,2.4c-0.4,0.1-0.9,0.2-0.9,0.6
		c0,0.5,0.3,0.7,1.1,0.7h1.1c1.4,0,1.9,0.5,1.9,1.4c0,1.4-1.4,1.9-3.2,1.9c-1.6,0-2.6-0.4-2.6-1.7C68.8,17.4,69.6,17,70.3,16.8z
		 M71.5,19.3c1.1,0,2.3-0.3,2.3-1.2c0-0.7-0.4-0.9-1.2-0.9h-1.8c-0.8,0.1-1.5,0.3-1.5,1.1C69.4,19.1,70.1,19.3,71.5,19.3z M73,12.9
		c0-0.8-0.2-1.4-0.4-1.7c-0.2-0.1-0.7-0.2-1.2-0.2c-1.1,0-1.5,0.5-1.5,1.8c0,1.3,0.5,1.8,1.5,1.8C72.5,14.7,73,14.2,73,12.9z"/>
	<path class="st2" d="M78.5,10.5c1.5,0,2.1,1.1,2.1,2.5c0,0.2,0,0.7,0,0.9h-4.1c0,2,0.6,2.9,2.2,2.9c0.8,0,1.3-0.4,1.7-0.8l0.4,0.4
		c-0.5,0.6-1.1,1-2.2,1c-2.2,0-2.8-1.5-2.8-3.5C75.7,12,76.5,10.5,78.5,10.5z M79.9,13.3v-0.4c0-1.2-0.4-1.9-1.5-1.9
		c-1.2,0-1.8,0.8-1.9,2.2H79.9z"/>
	<path class="st2" d="M82.8,10.6h0.6l0,1.3c0.4-0.9,1-1.3,1.9-1.3c1.5,0,2.1,0.7,2.1,2.3v4.5h-0.7V13c0-1.3-0.3-1.9-1.5-1.9
		c-0.9,0-1.6,0.8-1.8,1.7v4.5h-0.7V10.6z"/>
</g>
</svg>
