<svg xmlns="http://www.w3.org/2000/svg" xmlns:xlink="http://www.w3.org/1999/xlink" viewBox="0 0 109.56 25.21"><defs><style>.cls-1{fill:url(#linear-gradient);}.cls-2{isolation:isolate;}.cls-3{fill:#fff;}.cls-4{fill:none;stroke:#fff;stroke-miterlimit:10;stroke-width:0.54px;}</style><linearGradient id="linear-gradient" y1="12.61" x2="109.56" y2="12.61" gradientUnits="userSpaceOnUse"><stop offset="0" stop-color="#f50"/><stop offset="1" stop-color="#e1410d"/></linearGradient></defs><title>Asset 6</title><g id="Layer_2" data-name="Layer 2"><g id="Layer_1-2" data-name="Layer 1"><rect class="cls-1" width="109.56" height="25.21" rx="1.6" ry="1.6"/><g class="cls-2"><path class="cls-3" d="M11.44,8.12h.73V16.5h4v.67H11.44Z"/><path class="cls-3" d="M19.95,10.36c1.54,0,2.73.8,2.73,3.46s-1.4,3.46-2.73,3.46c-1.54,0-2.73-.8-2.73-3.46S18.62,10.36,19.95,10.36Zm2,3.46c0-2-.66-2.86-2-2.86s-2,.83-2,2.86.66,2.86,2,2.86S21.94,15.85,21.94,13.82Z"/><path class="cls-3" d="M25.48,16.72a.85.85,0,0,1-.5-.81A.93.93,0,0,1,25.8,15c-1.09-.28-1.47-1.09-1.47-2.28a2.13,2.13,0,0,1,2.28-2.4,4.76,4.76,0,0,1,1.16.14h1.95v.59H28.46a3.73,3.73,0,0,1,.35,1.69,2.09,2.09,0,0,1-2.23,2.37c-.36.06-.94.21-.94.6,0,.55.32.69,1.06.69h1.11c1.37,0,1.92.49,1.92,1.44,0,1.39-1.4,1.92-3.18,1.92-1.61,0-2.63-.38-2.63-1.65C23.92,17.28,24.76,16.86,25.48,16.72Zm1.22,2.49c1.15,0,2.34-.27,2.34-1.22,0-.69-.42-.92-1.18-.92H26.11c-.81.1-1.51.32-1.51,1.05S25.24,19.21,26.7,19.21Zm1.43-6.46a3.61,3.61,0,0,0-.36-1.68,4.4,4.4,0,0,0-1.18-.17c-1.12,0-1.54.53-1.54,1.85s.52,1.85,1.53,1.85S28.13,14.07,28.13,12.76Z"/><path class="cls-3" d="M34.79,8.37c0-.39.21-.5.49-.5a.44.44,0,0,1,.5.5.45.45,0,0,1-.5.52C35,8.89,34.79,8.76,34.79,8.37Zm.14,2.1h.7v6.7h-.7Z"/><path class="cls-3" d="M38.39,10.43H39l0,1.27A2,2,0,0,1,41,10.36c1.46,0,2.12.69,2.12,2.31v4.5h-.7V12.9c0-1.33-.25-1.93-1.47-1.93a2.19,2.19,0,0,0-1.85,1.72v4.48h-.7Z"/><path class="cls-3" d="M49.07,7.35l.7,0v4.37a2,2,0,0,1,2-1.33c1.46,0,2.09.71,2.09,2.34v4.47h-.7V12.73c0-1.18-.32-1.77-1.49-1.77-1,0-1.58.7-1.93,1.72v4.48h-.7Z"/><path class="cls-3" d="M58.67,10.36c1.54,0,2.12,1.06,2.12,2.49,0,.24,0,.66,0,.91h-4.1c0,2,.57,2.87,2.17,2.87a2.24,2.24,0,0,0,1.7-.77l.38.42a2.71,2.71,0,0,1-2.19,1c-2.17,0-2.77-1.54-2.77-3.46S56.75,10.36,58.67,10.36Zm1.41,2.82v-.35c0-1.16-.39-1.88-1.48-1.88s-1.83.78-1.93,2.23Z"/><path class="cls-3" d="M63,10.43h.64l0,1.33a2,2,0,0,1,1.79-1.4,2.28,2.28,0,0,1,.64.07l-.1.74a3.5,3.5,0,0,0-.69-.06c-.71,0-1.27.55-1.64,1.55v4.5H63Z"/><path class="cls-3" d="M69.82,10.36c1.54,0,2.11,1.06,2.11,2.49,0,.24,0,.66,0,.91h-4.1c0,2,.57,2.87,2.17,2.87a2.24,2.24,0,0,0,1.7-.77l.38.42a2.71,2.71,0,0,1-2.19,1c-2.17,0-2.77-1.54-2.77-3.46S67.9,10.36,69.82,10.36Zm1.41,2.82v-.35c0-1.16-.39-1.88-1.48-1.88s-1.83.78-1.93,2.23Z"/></g><path id="Oval-1-Copy-2" class="cls-4" d="M89.76,19.81a7.2,7.2,0,1,0-7.2-7.2A7.2,7.2,0,0,0,89.76,19.81Z"/><path id="Shape-Copy-27" class="cls-3" d="M91.86,13.06l-1.77,1.79a.34.34,0,0,0,0,.48.33.33,0,0,0,.47,0L92.9,13a.34.34,0,0,0,0-.48l-2.34-2.37a.33.33,0,0,0-.47,0,.34.34,0,0,0,0,.48l1.77,1.79H86.64a.34.34,0,0,0,0,.68Z"/></g></g></svg>